<?xml version="1.0" encoding="UTF-8"?>
<svg width="30px" height="30px" viewBox="0 0 30 30" version="1.1" xmlns="http://www.w3.org/2000/svg" xmlns:xlink="http://www.w3.org/1999/xlink">
    <title>btn_wxchart_on</title>
    <g id="Page-1" stroke="none" stroke-width="1" fill="none" fill-rule="evenodd">
        <g id="relife_frame_pc_MOL" transform="translate(-161.000000, -286.000000)">
            <g id="btn_wxchart_on" transform="translate(161.000000, 286.000000)">
                <circle id="Oval" fill="#3E99FD" cx="15" cy="15" r="15"></circle>
                <path d="M15,6 C19.9705627,6 24,10.0294373 24,15 C24,16.7927815 23.4758109,18.463132 22.5723387,19.8661456 C22.9351245,20.4897772 23.2352166,21.147497 23.4727476,21.8371756 C23.5626695,22.0982668 23.4239094,22.3828193 23.1628181,22.4727412 C22.9017269,22.5626632 22.6171744,22.4239031 22.5272524,22.1628118 C22.3594888,21.6757049 22.157532,21.206087 21.9212397,20.7538294 C20.2690534,22.7378102 17.7819268,24 15,24 C12.6800464,24 10.5651122,23.1222075 8.96920668,21.6806317 C7.48855619,22.2249613 5.83105874,22.4975941 4.0006669,22.5000358 C3.72452477,22.5004037 3.50036876,22.2768448 3.49999999,22.0007027 C3.49963213,21.7245606 3.72319098,21.5004045 3.9993331,21.5000362 C5.5390436,21.4979826 6.93726388,21.294181 8.19620595,20.8896485 C6.82742083,19.3115566 6,17.2524055 6,15 C6,10.0294373 10.0294373,6 15,6 Z M19.3169641,17.5242602 C18.4490406,19.0053747 16.8406739,20 15,20 C14.1586539,20 13.3658432,19.7921954 12.6700938,19.4251121 C12.2001168,19.8651133 11.687096,20.2619765 11.1322347,20.61507 C10.7687952,20.8463497 10.3914465,21.0562911 10.0002552,21.2449249 C11.369083,22.3430872 13.1078264,23 15,23 C17.6026517,23 19.9150208,21.7571523 21.3759847,19.8325795 C20.8573777,19.0509628 20.2242587,18.3276465 19.4757231,17.6610025 Z M15,7 C10.581722,7 7,10.581722 7,15 C7,17.1358874 7.83703288,19.0762754 9.20096807,20.5110332 C9.68999796,20.2985542 10.1544083,20.0520136 10.5953592,19.7714085 C11.0301084,19.49475 11.4364387,19.1885703 11.814443,18.8526589 C10.7054004,17.9354823 10,16.5501187 10,15 C10,12.2385763 12.2385763,10 15,10 C17.7614237,10 20,12.2385763 20,15 C20,15.5513208 19.9107693,16.0818006 19.7459619,16.5777854 C19.877663,16.6847148 20.0096269,16.7974052 20.1407995,16.9142271 C20.8416686,17.5384195 21.4512775,18.2109812 21.9690746,18.9314137 C22.6250329,17.7715503 23,16.4295643 23,15 C23,10.581722 19.418278,7 15,7 Z M15.3187967,15.5472074 L15.1620119,15.906506 C14.6902557,16.9433433 14.1036345,17.8641528 13.4027923,18.6674747 C13.8908138,18.8814271 14.4315598,19 15,19 C16.5205179,19 17.8428821,18.1516035 18.5195402,16.9023632 C17.4898554,16.1758834 16.4241581,15.7266553 15.3187967,15.5472074 Z M15,11 C12.790861,11 11,12.790861 11,15 C11,16.2759994 11.5974709,17.412452 12.5279155,18.1448607 C13.3685226,17.2195084 14.0361505,16.1123207 14.5333667,14.8204077 L14.5416976,14.7997616 C14.5492619,14.782435 14.5577679,14.7656526 14.567145,14.7494716 L14.5333667,14.8204077 C14.5468709,14.7853198 14.5638997,14.7526269 14.5838935,14.7225776 C14.5923111,14.7099905 14.6011393,14.6979912 14.6104648,14.6864286 C14.6197854,14.6747164 14.6298771,14.6632877 14.6404278,14.652384 C14.6494326,14.6432057 14.6591745,14.6338984 14.6692702,14.6249993 C14.681634,14.6140129 14.6940867,14.6040938 14.7069563,14.5948046 C14.7157371,14.5884967 14.7251038,14.5821739 14.7346803,14.5761698 C14.7496037,14.5668541 14.7647011,14.5584827 14.7801821,14.5509095 C14.7912575,14.5453778 14.8032763,14.5400338 14.8155183,14.5351632 C14.8293457,14.5298048 14.8427231,14.5251545 14.8562869,14.521074 C14.869324,14.5170232 14.883121,14.5134943 14.8971116,14.5105563 C14.9127429,14.5073417 14.9284573,14.5047971 14.9443058,14.5030077 C14.9506263,14.5022981 14.9567854,14.5017317 14.962971,14.5012796 L14.9783126,14.5003437 C14.9963001,14.4995538 15.0144098,14.4997376 15.0325677,14.500928 L15.0531936,14.5028313 C16.3918058,14.6460554 17.6715176,15.1271975 18.8890234,15.9409662 C18.9613851,15.6397642 19,15.3243916 19,15 C19,12.790861 17.209139,11 15,11 Z" id="Combined-Shape" fill="#FFFFFF" fill-rule="nonzero"></path>
            </g>
        </g>
    </g>
</svg>