<?xml version="1.0" encoding="UTF-8"?>
<svg width="30px" height="30px" viewBox="0 0 30 30" version="1.1" xmlns="http://www.w3.org/2000/svg" xmlns:xlink="http://www.w3.org/1999/xlink">
    <title>btn_wave_off</title>
    <g id="Page-1" stroke="none" stroke-width="1" fill="none" fill-rule="evenodd">
        <g id="relife_frame_pc_MOL" transform="translate(-200.000000, -381.000000)">
            <g id="btn_wave_off" transform="translate(200.000000, 381.000000)">
                <circle id="Oval" fill-opacity="0.5" fill="#FFFFFF" cx="15" cy="15" r="15"></circle>
                <path d="M14.9621259,7.11401691 C17.4637677,7.11401691 19.2355568,8.2691682 20.2774932,10.5794708 C18.8318917,9.86916044 17.6669467,9.51400528 16.7826581,9.51400528 C15.2677062,9.51400528 13.617257,10.5794708 13.617257,13.5783819 C13.617257,17.0354727 16.4115046,20.1760121 22,23 C20.9062443,23.1552577 20.0713558,23.2328866 19.4953346,23.2328866 C16.602048,23.2328866 14.5218346,21.4759215 12.901939,21.4759215 C10.839514,21.4759215 9.20553434,21.9839477 8,23 C7.55866768,21.2180351 7.55866768,18.8036371 8,15.756806 C8.61871076,11.1886298 11.2096632,7.11401691 14.9621259,7.11401691 Z" id="Rectangle" fill="#8D949A"></path>
                <path d="M14.8345004,10.9420757 C15.256426,10.3971578 15.7090658,10.1126042 15.7090658,10.1126042 C16.4354811,10.3768358 16.9220361,10.8213371 17.371453,11.4097651 C17.6581319,11.7851178 17.9601453,12.508353 18.2774932,13.5794708 C17.3815877,13.0032079 16.6942189,12.6353066 16.2153867,12.4757668 C15.5352618,12.2491593 14.6338606,12.3010086 14.3082388,12.3010086 C14.3082388,12.3010086 14.4125748,11.4869936 14.8345004,10.9420757 Z" id="Rectangle" fill="#8D949A"></path>
            </g>
        </g>
    </g>
</svg>