<?xml version="1.0" encoding="UTF-8"?>
<svg width="30px" height="30px" viewBox="0 0 30 30" version="1.1" xmlns="http://www.w3.org/2000/svg" xmlns:xlink="http://www.w3.org/1999/xlink">
    <title>マップボタン/btn_visibility_off</title>
    <g id="マップボタン/btn_visibility_off" stroke="none" stroke-width="1" fill="none" fill-rule="evenodd">
        <circle id="base" fill-opacity="0.5" fill="#FFFFFF" cx="15" cy="15" r="15"></circle>
        <path d="M12.8625,8.475 L17.1375,8.475 C17.7,8.475 18.2625,7.9125 18.2625,7.2375 C18.2625,6.5625 17.8125,6 17.1375,6 L12.8625,6 C12.3,6 11.7375,6.5625 11.7375,7.2375 C11.7375,7.9125 12.1875,8.475 12.8625,8.475 Z M7.4625,13.875 L9.0375,13.875 C9.6,13.875 10.1625,13.3125 10.1625,12.6375 C10.1625,11.9625 9.7125,11.4 9.0375,11.4 L7.4625,11.4 C6.9,11.4 6.3375,11.9625 6.3375,12.6375 C6.3375,13.3125 6.7875,13.875 7.4625,13.875 Z M19.3875,17.7 C19.3875,17.025 18.9375,16.4625 18.2625,16.4625 L18.2625,16.4625 C17.7,16.4625 17.1375,15.9 17.1375,15.225 C17.1375,14.55 17.5875,13.9875 18.2625,13.9875 L22.875,13.9875 C23.4375,13.9875 24,13.425 24,12.75 C24,12.075 23.55,11.5125 22.875,11.5125 L12.4125,11.5125 C11.85,11.5125 11.2875,12.075 11.2875,12.75 C11.2875,13.425 11.7375,13.9875 12.4125,13.9875 L13.9875,13.9875 C14.55,13.9875 15.1125,14.55 15.1125,15.225 C15.1125,15.9 14.6625,16.4625 13.9875,16.4625 L7.2375,16.4625 C6.5625,16.35 6,16.9125 6,17.7 C6,18.375 6.5625,18.9375 7.2375,18.9375 L18.2625,18.9375 C18.9375,18.9375 19.3875,18.375 19.3875,17.7 Z M22.875,16.35 L21.6375,16.35 C21.075,16.35 20.5125,16.9125 20.5125,17.5875 C20.5125,18.2625 20.9625,18.825 21.6375,18.825 L22.875,18.825 C23.4375,18.825 24,18.2625 24,17.5875 C24,16.9125 23.55,16.35 22.875,16.35 Z M18.9375,21.525 L15.7875,21.525 C15.225,21.525 14.6625,22.0875 14.6625,22.7625 C14.6625,23.4375 15.1125,24 15.7875,24 L18.9375,24 C19.5,24 20.0625,23.4375 20.0625,22.7625 C20.0625,22.0875 19.5,21.525 18.9375,21.525 Z M12.3,21.525 L11.0625,21.525 C10.5,21.525 9.9375,22.0875 9.9375,22.7625 C9.9375,23.4375 10.5,24 11.0625,24 L12.3,24 C12.8625,24 13.425,23.4375 13.425,22.7625 C13.425,22.0875 12.8625,21.525 12.3,21.525 Z" id="Shape" fill="#8D949A" fill-rule="nonzero"></path>
    </g>
</svg>