<?xml version="1.0" encoding="UTF-8"?>
<svg width="30px" height="30px" viewBox="0 0 30 30" version="1.1" xmlns="http://www.w3.org/2000/svg" xmlns:xlink="http://www.w3.org/1999/xlink">
    <title>マップボタン/btn_pirates_on</title>
    <g id="マップボタン/btn_pirates_on" stroke="none" stroke-width="1" fill="none" fill-rule="evenodd">
        <circle id="base" fill="#3E99FD" cx="15" cy="15" r="15"></circle>
        <path d="M5.32297122,5 C3.42213065,10.3586525 10.2271204,15.8515325 17.4670215,20.1622744 C17.2707558,20.7375888 17.2310379,21.3168315 17.3236144,21.860386 C17.5112182,22.9617451 18.2098311,23.9079403 19.1345826,24.4690881 C20.0592496,25.030236 21.2377733,25.2033276 22.330819,24.7100039 C23.4239069,24.2167221 24.3881228,23.0834358 24.9816522,21.1723656 L24.2268004,20.9430254 C23.67751,22.7114685 22.840645,23.6214741 22.0030194,23.9995009 C21.1653515,24.3775694 20.2837404,24.2501536 19.5474378,23.8033833 C18.8111773,23.3566548 18.2481547,22.5875212 18.1021702,21.7306299 C17.9561857,20.8736551 18.1964791,19.9203975 19.1448501,19.00521 C20.0213064,18.1593929 20.4998228,17.2661449 20.4307812,16.4460282 L19.6439439,16.5108853 C19.6752112,16.882393 19.4601428,17.4620117 18.938993,18.0774021 C13.5611864,13.8824168 7.29847303,9.61246128 5.32297122,5 Z M24.6770073,5 C23.2491058,8.3340405 19.5809867,11.4891389 15.6262226,14.5663418 C16.4498202,15.2298736 17.2977555,15.8878057 18.1273953,16.4473655 C22.8071805,12.9021215 26.0658247,8.91512186 24.6770496,5 L24.6770073,5 Z M9.56923956,16.4460282 C9.50019798,17.2661866 9.97867217,18.1593929 10.8551706,19.00521 C11.8035416,19.9203975 12.0438351,20.8736969 11.8978506,21.7306299 C11.7518661,22.587563 11.1888434,23.3566548 10.4525408,23.8033833 C9.71628037,24.2501954 8.83466927,24.3775694 7.99700141,23.9995426 C7.15933354,23.6215159 6.32242624,22.7115103 5.77322034,20.9430672 L5.01836857,21.1724074 C5.61185572,23.0834358 6.5761139,24.2167639 7.66915954,24.7100457 C8.76224745,25.2033694 9.94081339,25.0302778 10.8655227,24.4691299 C11.7902319,23.9079821 12.4888871,22.9617869 12.6764909,21.860386 C12.7690252,21.316915 12.7293072,20.7377978 12.5331261,20.1625669 C13.124078,19.8107003 13.712199,19.4512281 14.2928835,19.0842755 L11.8858507,17.4383171 C11.6090928,17.6515683 11.3338984,17.8645688 11.06107,18.0774021 C10.5397934,17.4620953 10.3247251,16.8824765 10.3559924,16.5109689 L9.56915505,16.4460282 L9.56923956,16.4460282 Z M10.3340208,19.5223118 C9.23121469,19.8817005 7.7106521,21.0373859 7.07613717,22.0432145 C7.28520555,22.4038569 7.51527373,22.6793743 7.75429956,22.8848527 C8.84637338,22.5107123 10.2831481,21.321679 10.9120011,20.3667499 C10.784946,20.0909399 10.5970464,19.8073572 10.3339786,19.5223118 L10.3340208,19.5223118 Z M19.666169,19.5223118 C19.4031434,19.807399 19.2153283,20.0910653 19.0881465,20.3668752 C19.7171262,21.3217626 21.1539009,22.5106705 22.2459747,22.8848945 C22.4849583,22.6793743 22.7149842,22.4038987 22.9241371,22.0432563 C22.28958,21.0373859 20.7690596,19.8817423 19.6662112,19.5223118 L19.666169,19.5223118 Z" id="sables" fill="#FFFFFF" fill-rule="nonzero"></path>
    </g>
</svg>