<?xml version="1.0" encoding="UTF-8"?>
<svg width="30px" height="30px" viewBox="0 0 30 30" version="1.1" xmlns="http://www.w3.org/2000/svg" xmlns:xlink="http://www.w3.org/1999/xlink">
    <title>マップボタン/btn_depict_on</title>
    <g id="マップボタン/btn_depict_on" stroke="none" stroke-width="1" fill="none" fill-rule="evenodd">
        <circle id="base" fill="#3E99FD" cx="15" cy="15" r="15"></circle>
        <path d="M15,6 C15.5522847,6 16,6.44771525 16,7 C16,7.12917584 15.9755072,7.25263109 15.9309123,7.36597504 L21.897921,11.7014925 C22.0654079,11.5750078 22.2739444,11.5 22.5,11.5 C23.0522847,11.5 23.5,11.9477153 23.5,12.5 C23.5,13.0522847 23.0522847,13.5 22.5,13.5 L22.556,13.497 L20.2312871,20.6526523 C20.4817428,20.8100192 20.6574955,21.0753523 20.6932723,21.3833789 L20.7,21.5 C20.7,22.0522847 20.2522847,22.5 19.7,22.5 C19.2241693,22.5 18.8259605,22.1676615 18.7248291,21.7224402 L11.2751709,21.7224402 C11.1740395,22.1676615 10.7758307,22.5 10.3,22.5 C9.74771525,22.5 9.3,22.0522847 9.3,21.5 C9.3,21.1429264 9.48715067,20.8295641 9.7687129,20.6526523 L7.44273824,13.498388 C6.91709774,13.4687137 6.5,13.033066 6.5,12.5 C6.5,11.9477153 6.94771525,11.5 7.5,11.5 C7.7264988,11.5 7.93540984,11.5753022 8.1030637,11.7022372 L14.0694888,7.36699283 C14.0246397,7.25337029 14,7.1295626 14,7 C14,6.44771525 14.4477153,6 15,6 Z M15.6368669,7.77100916 C15.4638957,7.91404838 15.2419854,8 15,8 C14.7580146,8 14.5361043,7.91404838 14.3631331,7.77100916 L8.41403278,12.0937452 C8.46928937,12.2178808 8.5,12.355354 8.5,12.5 C8.5,12.8952626 8.27067718,13.236964 7.93782172,13.399314 L10.245,20.503 L10.3,20.5 C10.7558541,20.5 11.1404671,20.8050194 11.2608791,21.2220984 L18.7391209,21.2220984 C18.8595329,20.8050194 19.2441459,20.5 19.7,20.5 C19.7183641,20.5 19.7366127,20.500495 19.754733,20.5014724 L22.0621783,13.399314 C21.7293228,13.236964 21.5,12.8952626 21.5,12.5 C21.5,12.355354 21.5307106,12.2178808 21.5859672,12.0937452 L15.6368669,7.77100916 Z" id="pentagon" fill="#FFFFFF"></path>
        <path d="M15,5.6 C15.8284271,5.6 16.5,6.27157288 16.5,7.1 C16.5,7.21752772 16.4864835,7.33189849 16.4609201,7.44164261 L21.7851162,11.3112151 C22.0383145,11.1160655 22.355603,11 22.7,11 C23.5284271,11 24.2,11.6715729 24.2,12.5 C24.2,13.3284271 23.5284271,14 22.7,14 C22.6852127,14 22.6704753,13.999786 22.6557908,13.999361 L20.6076322,20.3056609 C20.9676218,20.5796547 21.2,21.0126899 21.2,21.5 C21.2,22.3284271 20.5284271,23 19.7,23 C19.0367375,23 18.4740196,22.5695176 18.2760039,21.9727105 L11.7239961,21.9727105 C11.5259804,22.5695176 10.9632625,23 10.3,23 C9.47157288,23 8.8,22.3284271 8.8,21.5 C8.8,21.0126899 9.03237816,20.5796547 9.39236781,20.3056609 L7.343,13.997 L7.3,14 C6.52030388,14 5.87955132,13.4051119 5.80686658,12.64446 L5.8,12.5 C5.8,11.6715729 6.47157288,11 7.3,11 C7.64439702,11 7.96168549,11.1160655 8.21488384,11.3112151 L13.5390799,7.44164261 C13.5135165,7.33189849 13.5,7.21752772 13.5,7.1 C13.5,6.27157288 14.1715729,5.6 15,5.6 Z M15.9200422,8.28479131 C15.6660011,8.48234996 15.3467399,8.6 15,8.6 C14.6532601,8.6 14.3339989,8.48234996 14.0799578,8.28479131 L8.75926699,12.1513374 C8.78590039,12.2632213 8.8,12.3799641 8.8,12.5 C8.8,12.9545104 8.59785077,13.3618062 8.2785561,13.6368838 L10.346531,20.000708 C10.9687969,20.0196685 11.4957129,20.4176219 11.7042674,20.9715568 L18.2957326,20.9715568 C18.5094662,20.4038661 19.0575691,20 19.7,20 L19.653,20.001 L21.7214439,13.6368838 C21.4363829,13.3912991 21.2446941,13.0403281 21.2068666,12.64446 L21.2,12.5 C21.2,12.3799641 21.2140996,12.2632213 21.240733,12.1513374 Z" id="pentagon-L" fill="#FFFFFF" fill-rule="nonzero"></path>
    </g>
</svg>