<?xml version="1.0" encoding="UTF-8"?>
<svg width="30px" height="30px" viewBox="0 0 30 30" version="1.1" xmlns="http://www.w3.org/2000/svg" xmlns:xlink="http://www.w3.org/1999/xlink">
    <title>マップボタン/btn_port_off</title>
    <g id="マップボタン/btn_port_off" stroke="none" stroke-width="1" fill="none" fill-rule="evenodd">
        <circle id="base" fill-opacity="0.5" fill="#FFFFFF" cx="15" cy="15" r="15"></circle>
        <path d="M15.7857143,7.17100793 C15.7857143,6.95583239 15.7071429,6.77010193 15.5522449,6.61381653 C15.3973469,6.45753114 15.2132653,6.37825595 15,6.37825595 C14.7867347,6.37825595 14.6026531,6.45753114 14.4477551,6.61381653 C14.2928571,6.77010193 14.2142857,6.95583239 14.2142857,7.17100793 C14.2142857,7.38618347 14.2928571,7.57191393 14.4477551,7.72819932 C14.6026531,7.88448471 14.7867347,7.96375991 15,7.96375991 C15.2132653,7.96375991 15.3973469,7.88448471 15.5522449,7.72819932 C15.7071429,7.57191393 15.7857143,7.38618347 15.7857143,7.17100793 Z M26,18.6659117 L26,23.0260476 C26,23.207248 25.9191837,23.3318233 25.7553061,23.3975085 C25.6902041,23.4133635 25.6408163,23.4224236 25.6071429,23.4224236 C25.5016327,23.4224236 25.4073469,23.3861835 25.3242857,23.3114383 L24.1816327,22.1585504 C23.2073469,23.3386183 21.9053061,24.2740657 20.2710204,24.9648924 C18.6367347,25.6557191 16.8812245,26 14.9977551,26 C13.1142857,26 11.3587755,25.6557191 9.7244898,24.9648924 C8.09244898,24.2763307 6.78816327,23.3408834 5.81387755,22.1585504 L4.67571429,23.3114383 C4.60163265,23.3861835 4.50734694,23.4224236 4.39285714,23.4224236 C4.35918367,23.4224236 4.31204082,23.4133635 4.24469388,23.3975085 C4.08081633,23.3318233 4,23.207248 4,23.0260476 L4,18.6659117 C4,18.5503964 4.03591837,18.4552661 4.11,18.380521 C4.18408163,18.3057758 4.27836735,18.2695357 4.39285714,18.2695357 L8.71428571,18.2695357 C8.89387755,18.2695357 9.01734694,18.3510759 9.08244898,18.5164213 C9.14755102,18.6727067 9.11836735,18.817667 8.99714286,18.9490374 L7.76918367,20.1879955 C8.31693878,20.9399773 9.09367347,21.5741789 10.094898,22.0883352 C11.0983673,22.6047565 12.2095918,22.9445074 13.4285714,23.1098528 L13.4285714,15.0985277 L11.0714286,15.0985277 C10.8581633,15.0985277 10.6740816,15.0192525 10.5191837,14.8629672 C10.3642857,14.7066818 10.2857143,14.5209513 10.2857143,14.3057758 L10.2857143,12.7202718 C10.2857143,12.5050963 10.3642857,12.3193658 10.5191837,12.1630804 C10.6740816,12.006795 10.8581633,11.9275198 11.0714286,11.9275198 L13.4285714,11.9275198 L13.4285714,9.90939977 C12.954898,9.62853907 12.5732653,9.24575311 12.2859184,8.76330691 C11.9985714,8.2808607 11.8571429,7.74858437 11.8571429,7.17100793 C11.8571429,6.29671574 12.1646939,5.54926387 12.777551,4.92865232 C13.3904082,4.31030578 14.1312245,4 15,4 C15.8665306,4 16.6073469,4.31030578 17.222449,4.92865232 C17.8353061,5.54699887 18.1428571,6.29445074 18.1428571,7.17100793 C18.1428571,7.74858437 17.9991837,8.2785957 17.7140816,8.76330691 C17.4267347,9.24575311 17.0473469,9.62853907 16.5714286,9.90939977 L16.5714286,11.9275198 L18.9285714,11.9275198 C19.1418367,11.9275198 19.3259184,12.006795 19.4808163,12.1630804 C19.6357143,12.3193658 19.7142857,12.5050963 19.7142857,12.7202718 L19.7142857,14.3057758 C19.7142857,14.5209513 19.6357143,14.7066818 19.4808163,14.8629672 C19.3259184,15.0192525 19.1418367,15.0985277 18.9285714,15.0985277 L16.5714286,15.0985277 L16.5714286,23.1121178 C17.7904082,22.9467724 18.9016327,22.6070215 19.905102,22.0906002 C20.9085714,21.5741789 21.6830612,20.9399773 22.2308163,20.1902605 L21.0028571,18.9513024 C20.8793878,18.819932 20.852449,18.6749717 20.917551,18.5186863 C20.9826531,18.3533409 21.1061224,18.2718007 21.2857143,18.2718007 L25.6071429,18.2718007 C25.7216327,18.2718007 25.8159184,18.3080408 25.89,18.382786 C25.9640816,18.4552661 26,18.5503964 26,18.6659117 Z" id="anchor" fill="#8D949A" fill-rule="nonzero"></path>
    </g>
</svg>