<?xml version="1.0" encoding="UTF-8"?>
<svg width="30px" height="30px" viewBox="0 0 30 30" version="1.1" xmlns="http://www.w3.org/2000/svg" xmlns:xlink="http://www.w3.org/1999/xlink">
    <title>マップボタン/btn_windmill_on</title>
    <g id="マップボタン/btn_windmill_on" stroke="none" stroke-width="1" fill="none" fill-rule="evenodd">
        <circle id="base" fill="#3E99FD" cx="15" cy="15" r="15"></circle>
        <path d="M15.0003991,16.4526479 L16,17 C16.6666667,19.6655534 17,22.3023243 17,24.9103127 C17.0557938,25.5798379 17.0557938,26.2764003 17,27 L13,27 C12.9442062,26.2764003 12.9442062,25.5798379 13,24.9103127 C13,22.332397 13.3333333,19.6956261 14,17 L15.0003991,16.4526479 Z M15,3 C15.6719312,3 16.2265695,3.51264267 16.2932746,4.16728749 L16.3,4.3 L16.6874102,12.4258633 L23.5488203,16.8345898 C24.1515937,17.182543 24.3648242,17.9790469 24.0068672,18.6 C23.775457,19.0012734 23.3434102,19.25 22.8801836,19.25 C22.6985086,19.25 22.5185236,19.211455 22.3526306,19.137901 L22.2310469,19.0762266 L15,15.3482734 L7.75117969,19.0857734 C7.57136328,19.1897734 7.34731641,19.25 7.12027344,19.25 C6.65704687,19.25 6.225,19.0008164 5.99358984,18.6 C5.65762427,18.0178088 5.82399138,17.2814143 6.3574145,16.8963569 L6.46895312,16.8241797 L13.3126406,12.4258633 L13.700457,4.27963672 C13.7,3.58327344 14.2832734,3 15,3 Z M15.0025133,12.6 L14.992577,12.6 C14.4419896,12.6 14,13.0480253 14,13.6 C14,14.1519747 14.4519259,14.6 15.0025133,14.6 C15.5541528,14.6 16,14.1519747 16,13.6 C16,13.0480253 15.5541528,12.6 15.0025133,12.6 Z" id="windmill" fill="#FFFFFF"></path>
    </g>
</svg>