<?xml version="1.0" encoding="UTF-8"?>
<svg width="30px" height="30px" viewBox="0 0 30 30" version="1.1" xmlns="http://www.w3.org/2000/svg" xmlns:xlink="http://www.w3.org/1999/xlink">
    <title>マップボタン/btn_sprayicing_on</title>
    <g id="マップボタン/btn_sprayicing_on" stroke="none" stroke-width="1" fill="none" fill-rule="evenodd">
        <circle id="base" fill="#3E99FD" cx="15" cy="15" r="15"></circle>
        <path d="M11.4707246,16.2932862 L16.483,17.9013529 L16.5626329,17.9717563 C16.8285654,18.1814156 17.146552,18.2943166 17.4684933,18.3105014 L17.5211765,18.3094118 L17.5606989,18.3773573 C17.6465577,18.5131226 17.7525726,18.6348769 17.8744732,18.7385555 C17.6851885,19.7087254 17.0655137,22.4173102 15.7163793,24.5178266 C15.1986231,24.2639191 14.5344557,23.9999779 13.4313271,23.9999779 C12.1586122,23.9999779 11.469634,24.3511563 10.9164338,24.6334925 C10.4834708,24.8542331 10.1974644,25 9.50957672,25 C8.82168905,25 8.53595529,24.8542331 8.10326494,24.6334925 C7.80444414,24.4813152 7.46636221,24.3087919 7.01758571,24.1825349 C5.54868984,21.6916375 5.0297067,18.5550406 5.00124962,18.3778399 L5,18.3699763 L11.4707246,16.2932862 Z M19.3292958,5 C19.529172,5 19.694874,5.13933249 19.7331765,5.32317397 L19.74152,5.40441176 L19.74152,6.56456801 L20.3953025,5.92256434 C20.5325856,5.78824186 20.745101,5.76905293 20.9038791,5.86499756 L20.9781929,5.92256434 L21.2696381,6.20818015 C21.4069211,6.34250263 21.426533,6.55110482 21.3284737,6.70665007 L21.2696381,6.77941176 L19.7388944,8.27826287 L19.7388944,10.4140625 L21.6267241,9.34742647 L22.1859838,7.30009191 C22.2388246,7.11210363 22.4183112,6.98991125 22.6101106,7.00124584 L22.6927308,7.0144761 L23.0918269,7.11810662 C23.2848109,7.16897403 23.4074361,7.34562773 23.3963797,7.53292488 L23.3832721,7.61351103 L23.1443396,8.49057904 L24.1735874,7.90923713 C24.3458946,7.81192555 24.5624272,7.85007611 24.6895037,7.99151656 L24.7380984,8.05836397 L24.9455233,8.40969669 C25.0443128,8.57999196 25.0043949,8.79092587 24.8609493,8.91550266 L24.7932367,8.96323529 L23.7639888,9.54457721 L24.6593294,9.77964154 C24.8523134,9.83050896 24.9749386,10.0071627 24.9638823,10.1944598 L24.9507746,10.275046 L24.8431237,10.6668199 C24.7902828,10.8548081 24.6107962,10.9770005 24.4189969,10.9656659 L24.3363766,10.9524357 L22.2437477,10.4039522 L20.355918,11.4705882 L22.241122,12.5372243 L24.333751,11.9887408 C24.526735,11.9378734 24.7257497,12.0302088 24.8111853,12.198016 L24.840498,12.2743566 L24.948149,12.6661305 C25.0009898,12.8541188 24.9070824,13.0479126 24.7350266,13.1323691 L24.6567038,13.1615349 L23.7613632,13.3965993 L24.790611,13.9779412 C24.9652156,14.0752528 25.0372974,14.2770637 24.9716771,14.4529917 L24.9350208,14.5264246 L24.7275959,14.8777574 C24.628572,15.0445772 24.4292383,15.1166904 24.2502972,15.0638546 L24.1630849,15.0268842 L23.133837,14.4455423 L23.3727696,15.3226103 C23.4256104,15.5105986 23.331703,15.7043924 23.1596472,15.7888489 L23.0813244,15.8180147 L22.6822283,15.9216452 C22.4892443,15.9725126 22.2902296,15.8801772 22.2047939,15.71237 L22.1754812,15.6360294 L21.6162215,13.5886949 L19.7283919,12.5220588 L19.7283919,14.6578585 L21.2591355,16.1567096 C21.3964186,16.291032 21.4160305,16.4996342 21.3179711,16.6551795 L21.2591355,16.7279412 L20.9676903,17.013557 C20.8304073,17.1478795 20.6178918,17.1670684 20.4591138,17.0711238 L20.3848,17.013557 L19.7310175,16.3715533 L19.7310175,17.5367647 C19.7310175,17.7313879 19.5903,17.8950483 19.4020904,17.9329224 L19.3187932,17.9411765 L18.906569,17.9411765 C18.7066927,17.9411765 18.5409907,17.801844 18.5026882,17.6180025 L18.4943447,17.5367647 L18.4943447,16.3766085 L17.8405622,17.0186121 C17.7032792,17.1529346 17.4907637,17.1721235 17.3319857,17.0761789 L17.2576719,17.0186121 L16.9662267,16.7329963 C16.8289436,16.5986738 16.8093317,16.3900717 16.9073911,16.2345264 L16.9662267,16.1617647 L18.4969703,14.6629136 L18.4969703,12.527114 L16.6091407,13.59375 L16.049881,15.6410846 C15.9970401,15.8290728 15.8175535,15.9512652 15.6257542,15.9399306 L15.5431339,15.9267004 L15.1440378,15.8230699 C14.9510538,15.7722024 14.8284286,15.5955487 14.839485,15.4082516 L14.8525926,15.3276654 L15.0915252,14.4505974 L14.0622773,15.0319393 C13.8899702,15.1292509 13.6734376,15.0911004 13.5463611,14.9496599 L13.4977663,14.8828125 L13.2903414,14.5314798 C13.191552,14.3611845 13.2314698,14.1502506 13.3749155,14.0256738 L13.4426281,13.9779412 L14.4718759,13.3965993 L13.5765353,13.1615349 C13.3835513,13.1106675 13.2609261,12.9340138 13.2719825,12.7467167 L13.2850901,12.6661305 L13.3927411,12.2743566 C13.4455819,12.0863683 13.6250685,11.964176 13.8168679,11.9755105 L13.8994881,11.9887408 L15.9921171,12.5372243 L17.8799467,11.4705882 L15.9921171,10.4039522 L13.8994881,10.9524357 C13.7065041,11.0033031 13.5074894,10.9109677 13.4220538,10.7431605 L13.3927411,10.6668199 L13.2850901,10.275046 C13.2322493,10.0870577 13.3261567,9.89326387 13.4982125,9.80880737 L13.5765353,9.77964154 L14.4718759,9.54963235 L13.4426281,8.96829044 C13.2680235,8.86876723 13.1959417,8.668615 13.2562851,8.48974968 L13.2903414,8.41475184 L13.4977663,8.06341912 C13.5967902,7.89659926 13.7961239,7.82448604 13.975065,7.87732191 L14.0622773,7.91429228 L15.0915252,8.49563419 L14.8525926,7.61856618 C14.7997518,7.4305779 14.8936592,7.23678409 15.065715,7.15232759 L15.1440378,7.12316176 L15.5431339,7.01953125 C15.7361179,6.96866383 15.9351326,7.06099925 16.0205683,7.22880644 L16.049881,7.30514706 L16.6091407,9.35248162 L18.4969703,10.4191176 L18.4969703,8.28331801 L16.9662267,6.78446691 C16.8289436,6.65014443 16.8093317,6.44154224 16.9073911,6.28599699 L16.9662267,6.21323529 L17.2681744,5.92761949 C17.4054574,5.79329701 17.6179729,5.77410808 17.7767509,5.87005271 L17.8510648,5.92761949 L18.5048472,6.56962316 L18.5048472,5.40441176 C18.5048472,5.2097886 18.6455647,5.04612822 18.8337743,5.00825411 L18.9170715,5 L19.3292958,5 Z M12.231,10.8823529 L12.2583175,10.9785347 L12.3080958,11.1318804 C12.3461271,11.2312808 12.3936279,11.3249018 12.4492651,11.4120248 L12.4905882,11.4717647 L12.4545214,11.5245998 C12.3704649,11.6546242 12.3042305,11.7992257 12.2601621,11.9560047 L12.1506665,12.3544156 L12.1177239,12.5050982 C12.0583372,12.8563951 12.1199873,13.2034356 12.2749655,13.5003193 L12.2847059,13.5176471 L12.2237202,13.6286203 C11.9971461,14.0863301 11.9962035,14.6451789 12.2727047,15.1218176 L12.4846834,15.4809312 L12.5720874,15.6153059 L12.598,15.6473529 L11.4707246,15.2857388 L7.6711199,16.505108 L7.6711199,12.7282688 L9.32499489,12.7282688 L9.32499489,10.8823529 L12.231,10.8823529 Z" id="Combined-Shape" fill="#FFFFFF" fill-rule="nonzero"></path>
    </g>
</svg>