<?xml version="1.0" encoding="UTF-8"?>
<svg width="30px" height="30px" viewBox="0 0 30 30" version="1.1" xmlns="http://www.w3.org/2000/svg" xmlns:xlink="http://www.w3.org/1999/xlink">
    <title>マップボタン/btn_sst_off</title>
    <g id="マップボタン/btn_sst_off" stroke="none" stroke-width="1" fill="none" fill-rule="evenodd">
        <circle id="base" fill-opacity="0.5" fill="#FFFFFF" cx="15" cy="15" r="15"></circle>
        <path d="M15.0967742,19.6594595 C16.9032258,19.6594595 18.4516129,18.2324324 18.4516129,16.4162162 C18.4516129,15.3783784 17.9354839,14.4702703 17.1612903,13.8216216 L17.1612903,6.94594595 C17.1612903,5.77837838 16.2580645,5 15.0967742,5 C13.9354839,5 13.0322581,5.77837838 13.0322581,6.94594595 L13.0322581,13.8216216 C12.2580645,14.4702703 11.7419355,15.3783784 11.7419355,16.4162162 C11.7419355,18.2324324 13.1612903,19.6594595 15.0967742,19.6594595 Z M13.8064516,14.8594595 L14.3225806,14.4702703 L14.3225806,10.7081081 C14.3225806,10.3189189 14.7096774,10.0594595 15.0967742,10.0594595 C15.483871,10.0594595 15.8709677,10.3189189 15.8709677,10.7081081 L15.8709677,14.4702703 L16.3870968,14.8594595 C16.9032258,15.2486486 17.1612903,15.7675676 17.1612903,16.4162162 C17.1612903,17.4540541 16.2580645,18.3621622 15.0967742,18.3621622 C13.9354839,18.3621622 13.0322581,17.4540541 13.0322581,16.4162162 C13.0322581,15.7675676 13.2903226,15.2486486 13.8064516,14.8594595 Z M23.8709677,23.7351351 L23.483871,23.3459459 C22.3225806,22.1783784 20.516129,22.1783784 19.483871,23.3459459 C18.8387097,23.9945946 17.6774194,23.9945946 17.0322581,23.3459459 C15.8709677,22.1783784 14.1935484,22.1783784 13.0322581,23.3459459 C12.3870968,23.9945946 11.2258065,23.9945946 10.5806452,23.3459459 C9.41935484,22.1783784 7.74193548,22.1783784 6.58064516,23.3459459 L6.19354839,23.7351351 C5.93548387,23.9945946 5.93548387,24.2540541 6.19354839,24.5135135 C6.4516129,24.772973 6.70967742,24.772973 6.96774194,24.5135135 L7.35483871,24.1243243 C8,23.4756757 9.16129032,23.4756757 9.80645161,24.1243243 C10.9677419,25.2918919 12.6451613,25.2918919 13.8064516,24.1243243 C14.4516129,23.4756757 15.6129032,23.4756757 16.2580645,24.1243243 C16.7741935,24.6432432 17.5483871,24.9027027 18.3225806,24.9027027 C19.0967742,24.9027027 19.7419355,24.6432432 20.3870968,24.1243243 C21.0322581,23.4756757 22.1935484,23.4756757 22.8387097,24.1243243 L23.2258065,24.5135135 C23.483871,24.772973 23.7419355,24.772973 24,24.5135135 C24,24.2540541 24,23.9945946 23.8709677,23.7351351 Z" id="Shape" fill="#8D949A" fill-rule="nonzero"></path>
    </g>
</svg>