<?xml version="1.0" encoding="UTF-8"?>
<svg width="30px" height="30px" viewBox="0 0 30 30" version="1.1" xmlns="http://www.w3.org/2000/svg" xmlns:xlink="http://www.w3.org/1999/xlink">
    <title>マップボタン/btn_ice_off</title>
    <g id="マップボタン/btn_ice_off" stroke="none" stroke-width="1" fill="none" fill-rule="evenodd">
        <circle id="base" fill-opacity="0.5" fill="#FFFFFF" cx="15" cy="15" r="15"></circle>
        <path d="M25.4834165,25 C25.7687177,25 26,24.7761424 26,24.5 C26,24.2238576 25.7687177,24 25.4834165,24 C24.9930033,24 24.7364781,23.8497346 24.2557035,23.3181378 L23.9848123,23.0133743 C23.3201008,22.2819468 22.852038,22 21.9889874,22 C21.1256443,22 20.6574428,22.2819301 19.9924471,23.0134045 L19.8467201,23.1770909 C19.2816777,23.8236442 19.0248066,24 18.4932668,24 C18.0029759,24 17.7465268,23.8497605 17.2657847,23.3181547 L17.1406613,23.1771744 C16.3950951,22.3236772 15.923852,22 14.999096,22 C14.1360614,22 13.6680276,22.2819999 13.0034241,23.0135203 L12.7326164,23.31828 C12.2520728,23.8497832 11.9957218,24 11.5057,24 C11.0152887,24 10.7587843,23.8497511 10.2779573,23.3181307 L10.1528119,23.1771466 C9.40715017,22.3236662 8.93585342,22 8.01101262,22 C7.14796203,22 6.67989925,22.2819468 6.01518774,23.0133743 L5.74429652,23.3181378 C5.26352192,23.8497346 5.00699671,24 4.5165835,24 C4.23128231,24 4,24.2238576 4,24.5 C4,24.7761424 4.23128231,25 4.5165835,25 C5.37977641,25 5.84791421,24.7180193 6.51268621,23.9865288 L6.78357493,23.6817681 C7.26428851,23.1502355 7.52075006,23 8.01101262,23 C8.50142397,23 8.75792833,23.1502489 9.23875538,23.6818693 L9.36390072,23.8228534 C10.1095625,24.6763338 10.5808592,25 11.5057,25 C12.3685923,25 12.8365511,24.718034 13.5010941,23.9865767 L13.7719043,23.6818141 C14.2525089,23.1502466 14.5089236,23 14.999096,23 C15.4893869,23 15.745836,23.1502395 16.2265781,23.6818453 L16.3517015,23.8228256 C17.0972677,24.6763228 17.5685108,25 18.4932668,25 C19.3566099,25 19.8248114,24.7180699 20.4898071,23.9865955 L20.6355341,23.8229091 C21.2005765,23.1763558 21.4574476,23 21.9889874,23 C22.4792499,23 22.7357115,23.1502355 23.2164251,23.6817681 L23.4873138,23.9865288 C24.1520858,24.7180193 24.6202236,25 25.4834165,25 Z M21.031746,9.58490566 L15.3174603,4 L12.4603175,8.37735849 L16.1111111,14.5660377 L14.2063492,14.4150943 L11.1904762,9.13207547 L7.06349206,11.245283 L5,20 L25,20 L21.031746,9.58490566 Z" id="ice" fill="#8D949A" fill-rule="nonzero"></path>
    </g>
</svg>