<?xml version="1.0" encoding="UTF-8"?>
<svg width="30px" height="30px" viewBox="0 0 30 30" version="1.1" xmlns="http://www.w3.org/2000/svg" xmlns:xlink="http://www.w3.org/1999/xlink">
    <title>マップボタン/btn_radar_off</title>
    <g id="マップボタン/btn_radar_off" stroke="none" stroke-width="1" fill="none" fill-rule="evenodd">
        <circle id="base" fill-opacity="0.5" fill="#FFFFFF" cx="15" cy="15" r="15"></circle>
        <path d="M21.8922457,17.0571429 C21.8016113,17.0571429 21.7230614,17.0857143 21.652568,17.144898 C21.5820745,17.2020408 21.5397784,17.277551 21.5256798,17.3693878 L21.4511581,17.7408163 C21.2719033,18.6795918 20.917422,19.5510204 20.3897281,20.3510204 C19.8620342,21.1510204 19.2014099,21.8204082 18.4118832,22.355102 C17.6223565,22.8897959 16.7623364,23.2489796 15.835851,23.4306122 L15.469285,23.5061224 C15.3786506,23.5204082 15.306143,23.5632653 15.2477341,23.6346939 C15.1913394,23.7061224 15.1611279,23.7857143 15.1611279,23.877551 C15.1611279,23.9020408 15.163142,23.9265306 15.1691843,23.944898 L15.3121853,24.6959184 C15.3323263,24.7816327 15.3766365,24.8530612 15.4471299,24.9122449 C15.5176234,24.9693878 15.5941591,25 15.6787513,25 C15.7029204,25 15.7291037,24.9979592 15.7532729,24.9918367 L16.1198389,24.9244898 C17.24572,24.7020408 18.2870091,24.2673469 19.2416918,23.6163265 C20.1963746,22.9673469 20.9939577,22.1591837 21.6344411,21.1918367 C22.2749245,20.2244898 22.7059416,19.1693878 22.9254783,18.0285714 L22.9919436,17.6571429 C22.9959718,17.6326531 23,17.6061224 23,17.5816327 C23,17.4959184 22.9718026,17.4183673 22.9133938,17.3469388 C22.856999,17.2755102 22.7824773,17.2306122 22.6918429,17.2102041 L21.958711,17.0653061 C21.9405841,17.0591837 21.9164149,17.0571429 21.8922457,17.0571429 Z M18.8630413,17.0265306 C18.7824773,17.0265306 18.7099698,17.0510204 18.6455186,17.0979592 C18.5810675,17.1469388 18.5327291,17.2102041 18.5025176,17.2918367 L18.3897281,17.6489796 C18.1903323,18.2857143 17.8559919,18.8408163 17.3867069,19.3163265 C16.917422,19.7918367 16.3695871,20.1306122 15.7411883,20.3326531 L15.388721,20.4530612 C15.3081571,20.477551 15.24572,20.5244898 15.1973817,20.5897959 C15.1490433,20.655102 15.1268882,20.7285714 15.1268882,20.8102041 C15.1268882,20.8510204 15.1309164,20.8918367 15.1409869,20.9306122 L15.3726083,21.6510204 C15.3967774,21.7265306 15.4431017,21.7877551 15.5115811,21.8367347 C15.5780463,21.8857143 15.652568,21.9081633 15.7331319,21.9081633 C15.7734139,21.9081633 15.8096677,21.9040816 15.8459215,21.8938776 L16.204431,21.7795918 C16.6273917,21.6387755 17.0302115,21.4489796 17.408862,21.2102041 C17.7875126,20.9734694 18.1319235,20.6979592 18.4400806,20.3836735 C18.7482377,20.0693878 19.020141,19.722449 19.2557905,19.3387755 C19.489426,18.955102 19.6747231,18.5489796 19.8096677,18.1183673 L19.9284995,17.755102 C19.93857,17.7204082 19.9425982,17.6816327 19.9425982,17.6408163 C19.9425982,17.5591837 19.918429,17.4857143 19.8721047,17.4163265 C19.8257805,17.3469388 19.7633434,17.3020408 19.6888218,17.2755102 L18.9718026,17.0489796 C18.939577,17.0346939 18.9033233,17.0265306 18.8630413,17.0265306 Z M19.0503525,11.7367347 C19.0060423,11.6959184 18.939577,11.6428571 18.8529708,11.577551 C18.7663646,11.5122449 18.5810675,11.3938776 18.2990937,11.2204082 C18.0171198,11.0489796 17.7291037,10.8979592 17.4310171,10.7693878 C17.1349446,10.6408163 16.7643505,10.522449 16.3212487,10.4163265 C15.878147,10.3102041 15.4370594,10.2571429 14.9979859,10.2571429 C13.3766365,10.2571429 11.8801611,10.9510204 10.5065458,12.3408163 C9.13293051,13.7306122 8.44612286,15.2469388 8.44612286,16.8877551 C8.44612286,17.3326531 8.49647533,17.777551 8.59919436,18.222449 C8.70191339,18.6673469 8.82275932,19.0489796 8.96576032,19.3673469 C9.10876133,19.6857143 9.25176234,19.9714286 9.39677744,20.2265306 C9.54179255,20.4816327 9.66263847,20.6714286 9.7633434,20.7979592 L9.91238671,20.9959184 L19.0503525,11.7367347 Z M15.8197382,16.1183673 L14.2346425,17.7244898 L14.4360524,17.9285714 C14.6555891,18.1510204 14.9194361,18.2612245 15.2296073,18.2612245 C15.5377644,18.2612245 15.8036254,18.1510204 16.0231621,17.9285714 C16.2426989,17.7061224 16.3514602,17.4387755 16.3514602,17.1244898 C16.3514602,16.8102041 16.2426989,16.5428571 16.0231621,16.3204082 L15.8197382,16.1183673 Z M7,5 L7,6.51632653 C7,6.7244898 7.07452165,6.90204082 7.22155086,7.05102041 C7.36858006,7.2 7.54380665,7.2755102 7.74924471,7.2755102 L8.49647533,7.2755102 L9.99295065,10.7612245 C11.1490433,9.74081633 12.3957704,9.10816327 13.7331319,8.86734694 L14.4138973,7.2755102 L15.9768379,7.2755102 C16.1822759,7.2755102 16.3575025,7.2 16.5045317,7.05102041 C16.6515609,6.90204082 16.7260826,6.7244898 16.7260826,6.51632653 L16.7260826,5 L7,5 Z" id="radar" fill="#8D949A" fill-rule="nonzero" transform="translate(15.000000, 15.000000) scale(1, -1) translate(-15.000000, -15.000000) "></path>
    </g>
</svg>