<?xml version="1.0" encoding="UTF-8"?>
<svg width="30px" height="30px" viewBox="0 0 30 30" version="1.1" xmlns="http://www.w3.org/2000/svg" xmlns:xlink="http://www.w3.org/1999/xlink">
    <title>btn_nauticalchart_off</title>
    <g id="Page-1" stroke="none" stroke-width="1" fill="none" fill-rule="evenodd">
        <g id="relife_frame_pc_MOL" transform="translate(-96.000000, -614.000000)">
            <g id="btn_nauticalchart_off" transform="translate(96.000000, 614.000000)">
                <circle id="Oval" fill-opacity="0.5" fill="#FFFFFF" cx="15" cy="15" r="15"></circle>
                <path d="M19.0792224,18.2526042 C19.6980767,17.4601042 20.0671393,16.5867708 20.1796915,15.5929167 L16.9670344,15.5929167 C16.9266698,15.6883333 16.8772948,15.7751042 16.8552114,15.8683333 C16.8419823,15.9241146 16.8491698,16.0119271 16.8848989,16.048125 C17.6057324,16.7788542 18.3320347,17.5041667 19.0792224,18.2526042 L19.0792224,18.2526042 Z M14.414065,20.1816667 C14.414065,20.1040625 14.414065,20.0402604 14.414065,19.9764583 C14.414065,19.0341146 14.4030233,18.0915625 14.4218254,17.1495833 C14.4265129,16.9136458 14.2605753,16.9306771 14.142867,16.8538542 C14.0215128,16.7746354 13.9677628,16.8625 13.9007315,16.9295312 C13.2252105,17.605 12.5496374,18.2805208 11.874533,18.9565104 C11.8353143,18.9958333 11.8003143,19.039375 11.7578663,19.0870833 C12.543804,19.6998437 13.4150543,20.0660417 14.414065,20.1816667 L14.414065,20.1816667 Z M15.5958882,16.9675 L15.5958882,20.1807292 C16.5894822,20.0647917 17.4632845,19.6984896 18.2510451,19.08 C17.573597,18.4027083 16.9120344,17.7413542 16.2504717,17.08 C15.975732,16.8053646 15.9756799,16.8053646 15.5958882,16.9675 L15.5958882,16.9675 Z M19.0600037,11.7226562 C19.0082328,11.7924479 18.9720349,11.8560417 18.9221911,11.9060937 C18.307868,12.5232812 17.6917221,13.1386458 17.0756802,13.7541146 C16.8041177,14.0254687 16.803701,14.0252083 16.9564614,14.3817187 C16.9610969,14.3925521 16.971149,14.4011458 16.9715135,14.4016146 L20.1807852,14.4016146 C20.0637539,13.4094792 19.6977122,12.5370833 19.0600037,11.7226562 L19.0600037,11.7226562 Z M14.4048983,9.81760417 C13.4122418,9.9365625 12.5369811,10.2995833 11.7447413,10.9245313 C12.490679,11.6672917 13.2219292,12.3967708 13.9569815,13.1224479 C13.9884919,13.1535938 14.061044,13.1698958 14.1040128,13.1573438 C14.2081795,13.126875 14.3062003,13.0752604 14.4048983,13.0329167 L14.4048983,9.81760417 Z M10.9234911,18.2465104 C11.6625017,17.5075521 12.3980228,16.7733333 13.1301584,16.0358333 C13.158023,16.0077604 13.1734917,15.9417708 13.1613042,15.904375 C13.1258875,15.7957292 13.0734396,15.6926563 13.0326583,15.5989063 L9.82687626,15.5989063 C9.89755336,16.4891146 10.3213556,17.518125 10.9234911,18.2465104 L10.9234911,18.2465104 Z M9.81901167,14.4051042 C9.88703252,14.4084375 9.94427212,14.4136458 10.0015117,14.4136979 C10.9568766,14.4141667 11.9124497,14.4051563 12.8675541,14.4205208 C13.095575,14.4241667 13.0673979,14.2517708 13.1442209,14.1441146 C13.2290646,14.0251563 13.1396896,13.9694271 13.0722417,13.9019271 C12.3967207,13.2263021 11.7213038,12.5505729 11.0454182,11.8753646 C11.0057307,11.8357292 10.962137,11.8000521 10.9128661,11.7558333 C10.301043,12.5422396 9.9327617,13.4132292 9.81901167,14.4051042 L9.81901167,14.4051042 Z M15.5948986,9.81916667 C15.5915653,9.88661458 15.5863048,9.94385417 15.5863048,10.0010938 C15.585784,10.9564583 15.5948986,11.9120313 15.5793778,12.8671354 C15.5756798,13.095625 15.7487528,13.066875 15.8559403,13.1440104 C15.9744299,13.2292708 16.0305758,13.1396354 16.0980758,13.0721354 C16.773701,12.3966146 17.4494303,11.7211979 18.1246388,11.0453125 C18.1642743,11.005625 18.2000555,10.9620313 18.2445347,10.9125 C17.4577637,10.3013542 16.5870864,9.93223958 15.5948986,9.81916667 L15.5948986,9.81916667 Z M14.8437526,5 L15.1562526,5 C15.493909,5.15588542 15.6108361,5.42291667 15.5903673,5.78661458 C15.5701069,6.14708333 15.5859403,6.50963542 15.5859403,6.87614583 C15.8374507,6.88244792 16.0570862,6.94765625 16.14318,7.16729167 C16.2188571,7.36036458 16.2237529,7.58114583 16.2633883,7.80973958 C17.3231282,7.99588542 18.3147951,8.41260417 19.210212,9.03630208 C19.8013059,8.533125 19.8912018,8.516875 20.371254,8.85755208 C20.4051082,8.80619792 20.4360457,8.73796875 20.4853165,8.68791667 C20.8002645,8.368125 21.1156292,8.04854167 21.4382334,7.73651042 C21.6362543,7.545 21.9166711,7.51395833 22.1406295,7.63994792 C22.3545358,7.76026042 22.48089,8.00369792 22.417192,8.25265625 C22.3837545,8.3834375 22.3024003,8.51588542 22.2081816,8.61463542 C21.867869,8.9715625 21.5129731,9.31447917 21.1582334,9.66796875 C21.5878689,10.1330208 21.3085459,10.4671875 20.9553167,10.7816667 C21.5946397,11.6935417 22.0005773,12.6833854 22.1977649,13.7740625 C22.6784421,13.7408333 23.1033901,13.7921875 23.1285985,14.4140625 C23.4995882,14.4140625 23.8576091,14.4298437 24.2135988,14.4096354 C24.5772447,14.3890104 24.8447448,14.5051042 25,14.84375 L25,15.15625 C24.8445885,15.4945313 24.5770884,15.6105729 24.2136508,15.5903125 C23.8530257,15.5702083 23.4903694,15.5859375 23.1233381,15.5859375 C23.1174526,15.8367708 23.0524526,16.0561979 22.8328692,16.1427083 C22.6397963,16.2188021 22.4191712,16.2247917 22.1899524,16.2653646 C22.0016711,17.3227083 21.5870877,18.3151563 20.9631812,19.2102083 C21.4690147,19.7925 21.4853689,19.8833854 21.1459938,20.3679167 C21.1971917,20.4031771 21.2638063,20.4360417 21.3139626,20.4855729 C21.6333377,20.8008854 21.952869,21.11625 22.2646399,21.4390104 C22.4575566,21.63875 22.4863587,21.9132292 22.3575045,22.1411458 C22.2343795,22.3589063 21.997869,22.4819271 21.7456294,22.4170313 C21.6149522,22.3834375 21.4830772,22.3010937 21.3841709,22.2067708 C21.0276083,21.8665625 20.6848478,21.5119271 20.3302644,21.1561458 C20.1557852,21.3294271 19.9521393,21.4388542 19.7382851,21.3503125 C19.5422434,21.2692188 19.3779204,21.1116146 19.1856808,20.9780208 C18.3057847,21.5944792 17.3164615,22.0014583 16.2243258,22.1976563 C16.258805,22.6779167 16.2085446,23.1033333 15.5859403,23.1282813 C15.5859403,23.4995312 15.5700548,23.8575521 15.5903673,24.2134896 C15.6110965,24.5771875 15.4933361,24.8438542 15.1562526,25 L14.8437526,25 C14.5073462,24.8434375 14.3885962,24.5776562 14.4095337,24.2134375 C14.4302629,23.8529687 14.414065,23.4903646 14.414065,23.1265104 C14.1640649,23.1146354 13.9426586,23.0528125 13.8566169,22.8325 C13.7812002,22.6393229 13.7761481,22.4186458 13.7379189,22.1977604 C13.7393252,22.1982813 13.7219814,22.1888021 13.7034398,22.1852604 C12.6816687,21.9902083 11.7348976,21.6121875 10.8795328,21.016875 C10.7609911,20.934375 10.7178661,21.0209375 10.6570327,21.0807292 C10.2808868,21.4502083 10.0911992,21.4692187 9.66734497,21.1702083 C9.6225012,21.2126563 9.57505327,21.2554688 9.52984493,21.3005729 C9.21203235,21.6175521 8.89937602,21.9398958 8.57583426,22.2509375 C8.25494876,22.5594271 7.7634903,22.465625 7.6096361,22.0694792 C7.51281315,21.8202604 7.57255275,21.5975 7.76135489,21.4089583 C8.11953206,21.0511979 8.47755299,20.6933333 8.841251,20.3298958 C8.41099047,19.8667708 8.69130304,19.5330729 9.0448448,19.2182813 C8.40671964,18.3063542 7.99734453,17.3179167 7.80203198,16.2229167 C7.31854227,16.2644792 6.90010466,16.2035937 6.8708859,15.5859375 C6.50072956,15.5859375 6.14270863,15.5699479 5.78671895,15.5903646 C5.42281261,15.6111979 5.15614587,15.4934896 5,15.15625 L5,14.84375 C5.15578129,14.5058854 5.42265636,14.3888542 5.78666687,14.4095833 C6.1471878,14.4300521 6.50984414,14.4140625 6.87703174,14.4140625 C6.88109424,14.1619792 6.94843801,13.9433333 7.16703181,13.8566667 C7.35984436,13.7802604 7.58088609,13.7751042 7.80921948,13.735 C7.9983862,12.6770833 8.41161547,11.6839583 9.03713647,10.7896354 C8.53177175,10.2022917 8.51541758,10.1116667 8.84958434,9.63984375 C8.79932391,9.60161458 8.73718847,9.56421875 8.68708429,9.51463542 C8.36807379,9.19885417 8.04796954,8.88395833 7.73583405,8.56145833 C7.54307358,8.36234375 7.51343815,8.08645833 7.6415111,7.85927083 C7.76302155,7.64380208 8.00349037,7.51869792 8.25369876,7.58276042 C8.38437588,7.61619792 8.51625092,7.69822917 8.61520927,7.79234375 C8.97250103,8.13208333 9.31599071,8.48635417 9.6700533,8.84046875 C10.1335951,8.41182292 10.4676056,8.69145833 10.7508869,9.00973958 C11.2555745,8.74859375 11.719533,8.46864583 12.214481,8.26359375 C12.709377,8.05859375 13.2352626,7.92848958 13.7748981,7.75682292 C13.7344294,7.3175 13.7965127,6.9003125 14.414065,6.87067708 C14.414065,6.500625 14.4300025,6.14255208 14.4096379,5.78661458 C14.3888045,5.42276042 14.5057316,5.15567708 14.8437526,5 L14.8437526,5 Z" id="Fill-1" fill="#8D949A"></path>
            </g>
        </g>
    </g>
</svg>