<?xml version="1.0" encoding="UTF-8"?>
<svg width="30px" height="30px" viewBox="0 0 30 30" version="1.1" xmlns="http://www.w3.org/2000/svg" xmlns:xlink="http://www.w3.org/1999/xlink">
    <title>btn_typhoon_off</title>
    <g id="Page-1" stroke="none" stroke-width="1" fill="none" fill-rule="evenodd">
        <g id="relife_frame_pc_MOL" transform="translate(-200.000000, -427.000000)">
            <g id="btn_typhoon_off" transform="translate(200.000000, 427.000000)">
                <circle id="Oval" fill-opacity="0.5" fill="#FFFFFF" cx="15" cy="15" r="15"></circle>
                <path d="M15,4 C14.4319063,5.52413126 13.9721631,6.90307669 13.6207704,8.13683629 C14.0669219,8.04671448 14.5280056,8 15,8 C18.8659932,8 22,11.1340068 22,15 L21.998,15.091 L21.9951524,15.2634329 C21.9933718,15.3119411 21.9911008,15.3605204 21.9883394,15.409171 C21.9867189,15.4355395 21.9850806,15.4614462 21.9833018,15.4873143 C21.7678841,18.6848083 19.440053,22.189073 15,26 C15.5680937,24.4758687 16.0278369,23.0969233 16.3792296,21.8631637 C15.9330781,21.9532855 15.4719944,22 15,22 C11.1340068,22 8,18.8659932 8,15 L8.001,14.947 L8.00484765,14.7365671 C8.00754281,14.6631404 8.01136182,14.5895505 8.01630466,14.5157975 C8.01665173,14.5133564 8.01681335,14.5110085 8.01697613,14.5086609 C8.23065832,11.3173861 10.5585568,7.81212031 15,4 Z M15,12.5 C13.6192881,12.5 12.5,13.6192881 12.5,15 C12.5,16.3807119 13.6192881,17.5 15,17.5 C16.3807119,17.5 17.5,16.3807119 17.5,15 C17.5,13.6192881 16.3807119,12.5 15,12.5 Z" id="Combined-Shape" fill="#8D949A" transform="translate(15.000000, 15.000000) rotate(-315.000000) translate(-15.000000, -15.000000) "></path>
            </g>
        </g>
    </g>
</svg>