<?xml version="1.0" encoding="UTF-8"?>
<svg width="30px" height="30px" viewBox="0 0 30 30" version="1.1" xmlns="http://www.w3.org/2000/svg" xmlns:xlink="http://www.w3.org/1999/xlink">
    <title>btn_wind_on</title>
    <g id="Page-1" stroke="none" stroke-width="1" fill="none" fill-rule="evenodd">
        <g id="relife_frame_pc_MOL" transform="translate(-161.000000, -565.000000)">
            <g id="btn_wind_on" transform="translate(161.000000, 565.000000)">
                <circle id="Oval" fill="#3E99FD" cx="15" cy="15" r="15"></circle>
                <path d="M20.9681646,6.32443828 C21.0543513,6.55426954 20.9604193,6.80752473 20.7568864,6.92906439 L20.6755617,6.96816459 L13,9.846 L13.002005,11.7777479 L16.8246492,10.3442563 C17.0832093,10.2472963 17.3714154,10.378299 17.4683755,10.6368592 C17.5653355,10.8954194 17.4343328,11.1836254 17.1757726,11.2805855 L13.001765,12.8458384 L13.002005,14.7777479 L16.8246492,13.3442563 C17.0832093,13.2472963 17.3714154,13.378299 17.4683755,13.6368592 C17.5653355,13.8954194 17.4343328,14.1836254 17.1757726,14.2805855 L13.001765,15.8458384 L13,25.5 C13,25.7761424 12.7761424,26 12.5,26 C12.2545401,26 12.0503916,25.8231248 12.0080557,25.5898756 L12,25.5 L12.0000132,9.51222399 C11.9977801,9.42103353 12.0207596,9.33183245 12.0646854,9.25400625 C12.089645,9.20974604 12.1213355,9.16957872 12.158343,9.13493291 L12.2431136,9.07093561 L12.3244383,9.03183541 L20.3244383,6.03183541 C20.5829984,5.93487535 20.8712045,6.06587812 20.9681646,6.32443828 Z" id="Combined-Shape" fill="#FFFFFF" fill-rule="nonzero" transform="translate(16.500000, 15.999932) rotate(-330.000000) translate(-16.500000, -15.999932) "></path>
            </g>
        </g>
    </g>
</svg>