<?xml version="1.0" encoding="UTF-8"?>
<svg width="30px" height="30px" viewBox="0 0 30 30" version="1.1" xmlns="http://www.w3.org/2000/svg" xmlns:xlink="http://www.w3.org/1999/xlink">
    <title>btn_25m_on</title>
    <g id="Page-1" stroke="none" stroke-width="1" fill="none" fill-rule="evenodd">
        <g id="relife_frame_pc_MOL" transform="translate(-57.000000, -568.000000)">
            <g id="btn_25m_on" transform="translate(57.000000, 568.000000)">
                <circle id="Oval" fill="#3E99FD" cx="15" cy="15" r="15"></circle>
                <path d="M16.07,14.32 L16.07,15.76 L13.04,15.76 L13.04,18.64 C13.18,18.5 13.36,18.3825 13.58,18.2875 C13.8,18.1925 14.045,18.145 14.315,18.145 C14.835,18.145 15.2575,18.3025 15.5825,18.6175 C15.9075,18.9325 16.07,19.405 16.07,20.035 L16.07,22.795 C16.07,23.155 16.0075,23.475 15.8825,23.755 C15.7575,24.035 15.59,24.275 15.38,24.475 C15.17,24.675 14.9275,24.8275 14.6525,24.9325 C14.3775,25.0375 14.09,25.09 13.79,25.09 C13.49,25.09 13.2025,25.0375 12.9275,24.9325 C12.6525,24.8275 12.41,24.675 12.2,24.475 C11.99,24.275 11.8225,24.035 11.6975,23.755 C11.5725,23.475 11.51,23.155 11.51,22.795 L11.51,22.345 L13.04,22.345 L13.04,22.735 C13.04,22.995 13.1125,23.1975 13.2575,23.3425 C13.4025,23.4875 13.59,23.56 13.82,23.56 C14.05,23.56 14.2275,23.49 14.3525,23.35 C14.4775,23.21 14.54,23.015 14.54,22.765 L14.54,20.26 C14.54,20.05 14.4725,19.87 14.3375,19.72 C14.2025,19.57 14.03,19.495 13.82,19.495 C13.69,19.495 13.58,19.5175 13.49,19.5625 C13.4,19.6075 13.325,19.66 13.265,19.72 C13.205,19.78 13.16,19.845 13.13,19.915 C13.08,20.005 13.05,20.06 13.04,20.08 L11.69,20.08 L11.69,14.32 L16.07,14.32 Z M8.66617647,14.23 C9.06617647,14.23 9.40867647,14.3025 9.69367647,14.4475 C9.97867647,14.5925 10.2161765,14.79 10.4061765,15.04 C10.5861765,15.29 10.7186765,15.575 10.8036765,15.895 C10.8886765,16.215 10.9311765,16.555 10.9311765,16.915 C10.9311765,17.175 10.9261765,17.3925 10.9161765,17.5675 C10.9061765,17.7425 10.8861765,17.91 10.8561765,18.07 C10.8261765,18.23 10.7761765,18.39 10.7061765,18.55 C10.6361765,18.71 10.5411765,18.905 10.4211765,19.135 L8.17117647,23.47 L10.9311765,23.47 L10.9311765,25 L6.37117647,25 L6.37117647,23.56 L9.13117647,18.355 C9.27117647,18.095 9.35117647,17.8675 9.37117647,17.6725 C9.39117647,17.4775 9.40117647,17.235 9.40117647,16.945 C9.40117647,16.815 9.39867647,16.6775 9.39367647,16.5325 C9.38867647,16.3875 9.36117647,16.26 9.31117647,16.15 C9.26117647,16.04 9.18617647,15.9475 9.08617647,15.8725 C8.98617647,15.7975 8.84117647,15.76 8.65117647,15.76 C8.42117647,15.76 8.23867647,15.825 8.10367647,15.955 C7.96867647,16.085 7.90117647,16.275 7.90117647,16.525 L7.90117647,17.395 L6.37117647,17.395 L6.37117647,16.555 C6.37117647,16.235 6.43117647,15.935 6.55117647,15.655 C6.67117647,15.375 6.83617647,15.13 7.04617647,14.92 C7.24617647,14.71 7.48617647,14.5425 7.76617647,14.4175 C8.04617647,14.2925 8.34617647,14.23 8.66617647,14.23 Z M22.859,18.331 C23.0236667,18.331 23.1926667,18.3591667 23.366,18.4155 C23.5393333,18.4718333 23.6953333,18.565 23.834,18.695 C23.9726667,18.825 24.0853333,18.9918333 24.172,19.1955 C24.2586667,19.3991667 24.302,19.6483333 24.302,19.943 L24.302,25 L22.976,25 L22.976,20.437 C22.976,20.1943333 22.9196667,20.0036667 22.807,19.865 C22.6943333,19.7263333 22.534,19.657 22.326,19.657 C22.0746667,19.657 21.9013333,19.735 21.806,19.891 C21.7106667,20.047 21.663,20.2723333 21.663,20.567 L21.663,25 L20.337,25 L20.337,20.437 C20.337,20.1943333 20.2806667,20.0036667 20.168,19.865 C20.0553333,19.7263333 19.895,19.657 19.687,19.657 C19.4356667,19.657 19.2623333,19.735 19.167,19.891 C19.0716667,20.047 19.024,20.2723333 19.024,20.567 L19.024,25 L17.698,25 L17.698,18.409 L19.024,18.409 L19.024,19.046 L19.05,19.046 C19.1886667,18.838 19.3555,18.6668333 19.5505,18.5325 C19.7455,18.3981667 19.9946667,18.331 20.298,18.331 C20.584,18.331 20.8223333,18.4003333 21.013,18.539 C21.2036667,18.6776667 21.3596667,18.8293333 21.481,18.994 C21.6456667,18.812 21.8276667,18.656 22.027,18.526 C22.2263333,18.396 22.5036667,18.331 22.859,18.331 Z M15.503871,2.12085595 C15.6528747,2.20777474 15.7768601,2.3317602 15.8637789,2.48076383 L21.1227419,11.496129 C21.4010222,11.9731809 21.2398859,12.5854986 20.762834,12.8637789 C20.609898,12.9529916 20.4360176,13 20.258963,13 L9.741037,13 C9.18875225,13 8.741037,12.5522847 8.741037,12 C8.741037,11.8229454 8.7880454,11.649065 8.8772581,11.496129 L14.1362211,2.48076383 C14.4145014,2.00371192 15.0268191,1.84257567 15.503871,2.12085595 Z M14.9650879,10.2973633 C14.7538249,10.2973633 14.5568848,10.3850911 14.3742676,10.5605469 C14.1916504,10.7360026 14.1003418,10.9526367 14.1003418,11.2104492 C14.1003418,11.4611003 14.1889648,11.6750488 14.3662109,11.8522949 C14.543457,12.029541 14.7574056,12.1181641 15.0080566,12.1181641 C15.255127,12.1181641 15.4672852,12.029541 15.6445312,11.8522949 C15.8217773,11.6750488 15.9104004,11.4593099 15.9104004,11.2050781 C15.9104004,10.9580078 15.8226725,10.7449544 15.6472168,10.565918 C15.4717611,10.3868815 15.2443848,10.2973633 14.9650879,10.2973633 Z M15.888916,4.50732422 L14.0842285,4.50732422 L14.3205566,9.72265625 L15.6633301,9.72265625 L15.888916,4.50732422 Z" id="Combined-Shape" fill="#FFFFFF" fill-rule="nonzero"></path>
            </g>
        </g>
    </g>
</svg>