<?xml version="1.0" encoding="UTF-8"?>
<svg width="30px" height="30px" viewBox="0 0 30 30" version="1.1" xmlns="http://www.w3.org/2000/svg" xmlns:xlink="http://www.w3.org/1999/xlink">
    <title>マップボタン/btn_latlon_off</title>
    <g id="マップボタン/btn_latlon_off" stroke="none" stroke-width="1" fill="none" fill-rule="evenodd">
        <circle id="base" fill-opacity="0.5" fill="#FFFFFF" cx="15" cy="15" r="15"></circle>
        <path d="M15,6 C15.2761424,6 15.5,6.22385763 15.5,6.5 L15.5,9.5 L19.599,9.5 L19.6,7.5 C19.6,7.22385763 19.8238576,7 20.1,7 C20.3761424,7 20.6,7.22385763 20.6,7.5 L20.599,9.5 L22.5,9.5 C22.7761424,9.5 23,9.72385763 23,10 C23,10.2761424 22.7761424,10.5 22.5,10.5 L20.599,10.5 L20.599,14.5 L23.5,14.5 C23.7761424,14.5 24,14.7238576 24,15 C24,15.2761424 23.7761424,15.5 23.5,15.5 L20.599,15.5 L20.599,19.5 L22.5,19.5 C22.7761424,19.5 23,19.7238576 23,20 C23,20.2761424 22.7761424,20.5 22.5,20.5 L20.599,20.5 L20.6,22.5 C20.6,22.7761424 20.3761424,23 20.1,23 C19.8238576,23 19.6,22.7761424 19.6,22.5 L19.599,20.5 L15.499,20.5 L15.5,23.5 C15.5,23.7761424 15.2761424,24 15,24 C14.7238576,24 14.5,23.7761424 14.5,23.5 L14.499,20.5 L10.499,20.5 L10.5,22.5 C10.5,22.7761424 10.2761424,23 10,23 C9.72385763,23 9.5,22.7761424 9.5,22.5 L9.499,20.5 L7.5,20.5 C7.22385763,20.5 7,20.2761424 7,20 C7,19.7238576 7.22385763,19.5 7.5,19.5 L9.499,19.5 L9.499,15.5 L6.5,15.5 C6.22385763,15.5 6,15.2761424 6,15 C6,14.7238576 6.22385763,14.5 6.5,14.5 L9.5,14.5 L9.5,10.5 L7.5,10.5 C7.22385763,10.5 7,10.2761424 7,10 C7,9.72385763 7.22385763,9.5 7.5,9.5 L9.5,9.5 L9.5,7.5 C9.5,7.22385763 9.72385763,7 10,7 C10.2761424,7 10.5,7.22385763 10.5,7.5 L10.5,9.5 L14.5,9.5 L14.5,6.5 C14.5,6.22385763 14.7238576,6 15,6 Z M14.499,15.5 L10.499,15.5 L10.499,19.5 L14.499,19.5 L14.499,15.5 Z M19.599,15.5 L15.499,15.5 L15.499,19.5 L19.599,19.5 L19.599,15.5 Z M19.599,10.5 L15.5,10.5 L15.5,14.5 L19.599,14.5 L19.599,10.5 Z M14.5,10.5 L10.5,10.5 L10.5,14.5 L14.5,14.5 L14.5,10.5 Z" id="Combined-Shape" fill="#8D949A"></path>
    </g>
</svg>