<?xml version="1.0" encoding="UTF-8"?>
<svg width="30px" height="30px" viewBox="0 0 30 30" version="1.1" xmlns="http://www.w3.org/2000/svg" xmlns:xlink="http://www.w3.org/1999/xlink">
    <title>btn_ship_off</title>
    <g id="Page-1" stroke="none" stroke-width="1" fill="none" fill-rule="evenodd">
        <g id="relife_frame_pc_MOL" transform="translate(-200.000000, -196.000000)">
            <g id="btn_ship_off" transform="translate(200.000000, 196.000000)">
                <circle id="Oval" fill-opacity="0.5" fill="#FFFFFF" cx="15" cy="15" r="15"></circle>
                <path d="M15.0001685,13.5156654 L23,16.0163465 C23,16.0163465 22.3187401,20.2813654 20.2493416,23.4193829 C19.6092068,23.1136359 18.7880544,22.7958068 17.4241862,22.7958068 C15.8506478,22.7958068 14.9988202,23.218684 14.3148636,23.5586639 C13.7795639,23.8244724 13.425956,24 12.5754767,24 C11.7249974,24 11.3717265,23.8244724 10.8367639,23.5586639 C10.4673128,23.3754171 10.0493206,23.1676702 9.49446961,23.0156358 C7.62496576,19.9279608 7,16.0163465 7,16.0163465 L7,16.0163465 L15.0001685,13.5156654 Z M17.6527336,7 L17.6527336,9.22279036 L19.6978616,9.22279036 L19.6978616,13.7707342 L15.0001685,12.3024105 L10.3024755,13.7707342 L10.3024755,9.22279036 L12.3472664,9.22279036 L12.3472664,7 L17.6527336,7 Z" id="Combined-Shape" fill="#8D949A" fill-rule="nonzero"></path>
            </g>
        </g>
    </g>
</svg>