<?xml version="1.0" encoding="UTF-8"?>
<svg width="30px" height="30px" viewBox="0 0 30 30" version="1.1" xmlns="http://www.w3.org/2000/svg" xmlns:xlink="http://www.w3.org/1999/xlink">
    <title>btn_current_on</title>
    <g id="Page-1" stroke="none" stroke-width="1" fill="none" fill-rule="evenodd">
        <g id="relife_frame_pc_MOL" transform="translate(-161.000000, -335.000000)">
            <g id="btn_current_on" transform="translate(161.000000, 335.000000)">
                <circle id="Oval" fill="#3E99FD" cx="15" cy="15" r="15"></circle>
                <path d="M25.29375,18.5 C25.5698924,18.5 25.79375,18.7238576 25.79375,19 C25.79375,19.2761424 25.5698924,19.5 25.29375,19.5 C24.8190802,19.5 24.57079,19.6502654 24.1054494,20.1818622 L23.8432544,20.4866257 C23.1998816,21.2180532 22.7468447,21.5 21.9115,21.5 C21.0758722,21.5 20.622701,21.2180699 19.9790532,20.4865955 L19.8380044,20.3229091 C19.2911011,19.6763558 19.0424762,19.5 18.528,19.5 C18.0534485,19.5 17.805232,19.6502395 17.3399229,20.1818453 L17.2188162,20.3228256 C16.4971844,21.1763228 16.0410692,21.5 15.146,21.5 C14.3106708,21.5 13.8576619,21.2180001 13.2143937,20.4864797 L12.9522795,20.18172 C12.4871625,19.6502168 12.2390409,19.5 11.76475,19.5 C11.290082,19.5 11.041812,19.6502489 10.5764206,20.1818693 L10.4552927,20.3228534 C9.73356836,21.1763338 9.2774013,21.5 8.38225,21.5 C7.5469053,21.5 7.09386839,21.2180532 6.45049563,20.4866257 L6.18830064,20.1818622 C5.72295999,19.6502654 5.47466983,19.5 5,19.5 C4.72385763,19.5 4.5,19.2761424 4.5,19 C4.5,18.7238576 4.72385763,18.5 5,18.5 C5.83548245,18.5 6.28859196,18.7819807 6.93202327,19.5134712 L7.19421585,19.8182319 C7.65949743,20.3497645 7.90772598,20.5 8.38225,20.5 C8.85691803,20.5 9.10518801,20.3497511 9.57057943,19.8181307 L9.69170731,19.6771466 C10.4134316,18.8236662 10.8695987,18.5 11.76475,18.5 C12.5999415,18.5 13.0528777,18.781966 13.6960874,19.5134233 L13.958204,19.8181859 C14.42338,20.3497534 14.6715632,20.5 15.146,20.5 C15.6205515,20.5 15.868768,20.3497605 16.3340771,19.8181547 L16.4551838,19.6771744 C17.1768156,18.8236772 17.6329308,18.5 18.528,18.5 C19.3636278,18.5 19.816799,18.7819301 20.4604468,19.5134045 L20.6014956,19.6770909 C21.1483989,20.3236442 21.3970238,20.5 21.9115,20.5 C22.386024,20.5 22.6342526,20.3497645 23.0995341,19.8182319 L23.3617267,19.5134712 C24.005158,18.7819807 24.4582676,18.5 25.29375,18.5 Z" id="Stroke-1" fill="#FFFFFF" fill-rule="nonzero"></path>
                <path d="M19.7232661,8.05251916 L19.8,8.1 L23.8395288,11.1329044 L23.8824063,11.1778564 L23.9317353,11.2476404 L23.9735474,11.3391025 L23.9990503,11.4685589 L23.9990503,11.5309605 L23.9830922,11.6290078 L23.9551218,11.7072638 L23.9,11.8 L23.8670671,11.8396301 L23.8221436,11.8824063 L19.8,14.9 C19.5790861,15.0656854 19.2656854,15.0209139 19.1,14.8 C18.9527241,14.6036321 18.9717351,14.3341882 19.1329329,14.1603699 L19.2,14.1 L22,12 L7.5,12 C7.22385763,12 7,11.7761424 7,11.5 C7,11.2545401 7.17687516,11.0503916 7.41012437,11.0080557 L7.5,11 L22,11 L19.2,8.9 C18.9790861,8.73431458 18.9343146,8.4209139 19.1,8.2 C19.2288664,8.02817808 19.4470915,7.96291142 19.6416583,8.02034529 L19.7232661,8.05251916 Z" id="Combined-Shape" fill="#FFFFFF" fill-rule="nonzero"></path>
            </g>
        </g>
    </g>
</svg>