<svg xmlns="http://www.w3.org/2000/svg" xmlns:xlink="http://www.w3.org/1999/xlink" width="16" height="16" viewBox="0 0 16 16"><defs><style>.cls-1,.cls-2{fill:none;}.cls-1{stroke:#999;stroke-miterlimit:10;stroke-width:0.25px;}.cls-3{fill:#bbb;stroke:#999;}</style></defs><title>20190904_AEDYN_UI_icons</title><g id="outline"><rect class="cls-1" x="-51.96" y="-42.99" width="119.07" height="102"/><rect class="cls-2" x="0.01" y="0.06" width="16" height="16"/></g><g id="design"><path class="cls-3" d="M12.13,3.8A6.54,6.54,0,0,1,15.73,1S9,.21,4.91,2.94A6,6,0,0,0,2.13,9.51a5.89,5.89,0,0,0,1.66,2.9A6.48,6.48,0,0,1,.19,15.2S6.9,16,11,13.27A6,6,0,0,0,13.79,6.7,5.93,5.93,0,0,0,12.13,3.8ZM7.49,6.16A2,2,0,1,1,6,8.58,2,2,0,0,1,7.49,6.16Z"/></g></svg>