<svg xmlns="http://www.w3.org/2000/svg" xmlns:xlink="http://www.w3.org/1999/xlink" width="16" height="16" viewBox="0 0 16 16"><defs><style>.cls-1,.cls-2{fill:none;}.cls-1{stroke:#999;stroke-miterlimit:10;stroke-width:0.25px;}.cls-3{fill:url(#名称未設定グラデーション_21);}</style><linearGradient id="名称未設定グラデーション_21" x1="0.04" y1="0.28" x2="15.61" y2="15.65" gradientTransform="matrix(-1, 0, 0, 1, 15.9, 0)" gradientUnits="userSpaceOnUse"><stop offset="0" stop-color="#ff4200"/><stop offset="0.89" stop-color="#ff8d00"/><stop offset="1" stop-color="#ff9700"/></linearGradient></defs><title>20190904_AEDYN_UI_icons</title><g id="outline"><rect class="cls-1" x="-51.97" y="-43.29" width="119.07" height="102"/><rect class="cls-2" x="-0.04" y="-0.05" width="16" height="16" transform="translate(15.92 15.89) rotate(-180)"/></g><g id="design"><path class="cls-3" d="M2.22,6.59A6,6,0,0,0,5,13.16c4.12,2.73,10.82,1.92,10.82,1.92a6.54,6.54,0,0,1-3.6-2.78A6,6,0,0,0,11.1,2.82C7,.09.28.9.28.9a6.48,6.48,0,0,1,3.6,2.79A6,6,0,0,0,2.22,6.59ZM10,8.46A2,2,0,1,1,8.52,6.05,2,2,0,0,1,10,8.46Z"/></g></svg>