<svg xmlns="http://www.w3.org/2000/svg" xmlns:xlink="http://www.w3.org/1999/xlink" width="16" height="16" viewBox="0 0 16 16"><defs><style>.cls-1,.cls-2{fill:none;}.cls-1{stroke:#999;stroke-miterlimit:10;stroke-width:0.25px;}.cls-3{fill:#aaa;stroke:#999;}</style></defs><title>20190904_AEDYN_UI_icons</title><g id="outline"><rect class="cls-1" x="-52.37" y="-43.23" width="119.07" height="102"/><rect class="cls-2" width="16" height="16" transform="translate(16 16) rotate(-180)"/></g><g id="design"><path class="cls-3" d="M2.15,6.64A6,6,0,0,0,4.94,13.2c4.11,2.74,10.81,1.93,10.81,1.93a6.58,6.58,0,0,1-3.6-2.78A6,6,0,0,0,11,2.87C6.92.14.21,1,.21,1A6.57,6.57,0,0,1,3.82,3.73,6.06,6.06,0,0,0,2.15,6.64Z"/></g></svg>
