<?xml version="1.0" encoding="UTF-8"?>
<svg width="50px" height="50px" viewBox="0 0 50 50" version="1.1" xmlns="http://www.w3.org/2000/svg" xmlns:xlink="http://www.w3.org/1999/xlink">
    <title>マップアイコン/icon_x_l</title>
    <g id="マップアイコン/icon_x_l" stroke="none" stroke-width="1" fill="none" fill-rule="evenodd">
        <path d="M8.73654403,1.66547622 L25.0000101,17.9290101 L41.263456,1.66547622 C43.2160774,-0.287145238 46.3819023,-0.287145238 48.3345238,1.66547622 C50.2871452,3.61809768 50.2871452,6.78392257 48.3345238,8.73654403 L32.0710101,25.0000101 L48.3345238,41.263456 C50.2871452,43.2160774 50.2871452,46.3819023 48.3345238,48.3345238 C46.3819023,50.2871452 43.2160774,50.2871452 41.263456,48.3345238 L25.0000101,32.0710101 L8.73654403,48.3345238 C6.78392257,50.2871452 3.61809768,50.2871452 1.66547622,48.3345238 C-0.287145238,46.3819023 -0.287145238,43.2160774 1.66547622,41.263456 L17.9290101,25.0000101 L1.66547622,8.73654403 C-0.287145238,6.78392257 -0.287145238,3.61809768 1.66547622,1.66547622 C3.61809768,-0.287145238 6.78392257,-0.287145238 8.73654403,1.66547622 Z" id="Combined-Shape" fill="#000000"></path>
    </g>
</svg>