<?xml version="1.0" encoding="UTF-8" standalone="no"?>
<!DOCTYPE svg PUBLIC "-//W3C//DTD SVG 1.1//EN" "http://www.w3.org/Graphics/SVG/1.1/DTD/svg11.dtd">
<svg width="100%" height="100%" viewBox="0 0 401 401" version="1.1" xmlns="http://www.w3.org/2000/svg" xmlns:xlink="http://www.w3.org/1999/xlink" xml:space="preserve" xmlns:serif="http://www.serif.com/" style="fill-rule:evenodd;clip-rule:evenodd;stroke-linejoin:round;stroke-miterlimit:2;">
    <path id="rect4621" d="M78.006,0L43.211,143.74L43.145,144.012L43.045,144.42L43.033,144.416L43.162,144.986L43.275,145.49L43.279,145.486L67.029,247.193L91.006,144.52L125.963,144.52L149.938,247.184L173.912,144.52L202.379,144.52L164.113,295.365L133.213,295.365L108.527,187.664L83.906,295.365L53.783,295.365L30.08,205.174L30.076,205.191L29.182,201.697L7.309,292.061L6.414,295.471L6.482,295.471L0,322.25L322.238,400.244L347.643,295.299L347.631,295.297L347.631,295.326L316.873,295.326L315.529,295.328L316.869,289.949L316.873,289.938L316.873,289.936L316.875,289.928L352.854,145.496L383.867,145.646L400.244,77.994L78.006,0ZM314.211,144.508L333.467,144.846L295.973,295.365L263.625,295.365L238.361,189.311L213.164,295.365L183.684,295.365L221.941,144.543L221.906,144.52L256.174,144.52L280.131,247.109L304.088,144.52L314.211,144.52L314.211,144.508Z" style="fill:white;fill-rule:nonzero;"/>
</svg>
