<?xml version="1.0" standalone="no"?>
<!DOCTYPE svg PUBLIC "-//W3C//DTD SVG 20010904//EN"
 "http://www.w3.org/TR/2001/REC-SVG-20010904/DTD/svg10.dtd">
<svg version="1.0" xmlns="http://www.w3.org/2000/svg"
 width="251.000000pt" height="201.000000pt" viewBox="0 0 251.000000 201.000000"
 preserveAspectRatio="xMidYMid meet">

<g transform="translate(0.000000,201.000000) scale(0.100000,-0.100000)"
fill="#000000" stroke="none">
<path d="M2097 1790 c-3 -11 10 -51 30 -92 37 -77 46 -154 23 -198 -6 -11 -13
-39 -16 -62 -3 -24 -14 -52 -24 -63 -14 -15 -16 -24 -9 -38 6 -10 14 -40 18
-67 6 -39 5 -53 -7 -62 -10 -8 -12 -24 -9 -51 4 -32 1 -44 -17 -62 -13 -13
-26 -36 -29 -52 -6 -26 -5 -25 9 5 10 23 20 32 30 28 8 -3 12 -1 9 4 -3 5 -2
18 4 27 8 15 10 16 14 3 3 -8 10 -33 17 -56 14 -47 2 -83 -28 -85 -11 0 -13
-2 -4 -6 7 -3 23 3 34 13 12 11 18 14 15 7 -4 -6 -3 -14 3 -18 5 -3 10 0 10 8
0 15 -26 106 -41 145 -11 28 -12 79 -1 86 4 2 7 39 6 81 0 41 3 78 8 81 4 3 8
16 8 30 0 14 11 44 24 67 13 23 22 53 21 67 -3 38 -31 126 -60 185 -14 30 -22
60 -19 68 3 8 1 18 -4 21 -5 3 -12 -3 -15 -14z m69 -307 c-18 -33 -21 -26 -6
13 6 15 13 24 16 21 3 -3 -1 -18 -10 -34z m-36 -156 c0 -5 -4 -5 -10 -2 -5 3
-10 14 -10 23 0 15 2 15 10 2 5 -8 10 -19 10 -23z"/>
<path d="M283 1746 c-1 -32 -6 -63 -12 -70 -6 -7 -12 -52 -13 -99 l-2 -86 43
-46 c23 -25 40 -52 37 -60 -2 -7 2 -16 10 -19 8 -3 14 -14 14 -24 0 -10 4 -22
10 -28 5 -5 11 -29 13 -52 3 -23 12 -51 21 -61 12 -13 17 -34 16 -68 -2 -67 1
-84 10 -43 6 31 8 33 16 15 5 -11 19 -20 33 -21 23 -1 23 0 5 12 -37 26 -44
35 -44 58 0 13 -8 34 -19 47 -22 29 -38 109 -22 109 6 0 16 -12 22 -26 5 -15
12 -24 16 -21 7 8 -24 57 -36 57 -4 0 -6 11 -4 24 4 18 0 26 -15 30 -12 4 -26
22 -32 41 -6 19 -22 49 -34 68 -43 63 -50 112 -28 210 9 45 11 75 5 89 -7 15
-9 7 -10 -36z m28 -279 c12 -22 12 -22 -10 -3 -11 11 -21 23 -21 28 0 14 19
-1 31 -25z m79 -121 c0 -8 -4 -18 -10 -21 -5 -3 -10 3 -10 14 0 12 5 21 10 21
6 0 10 -6 10 -14z"/>
<path d="M1232 1640 c0 -14 2 -19 5 -12 2 6 2 18 0 25 -3 6 -5 1 -5 -13z"/>
<path d="M1224 1598 c-42 -31 -52 -42 -27 -29 20 10 22 8 26 -21 l4 -33 1 34
c1 19 9 43 19 53 22 24 12 23 -23 -4z"/>
<path d="M1210 1449 c0 -21 -4 -28 -12 -23 -9 6 -9 3 1 -9 7 -10 10 -24 6 -34
-7 -17 -16 -129 -15 -185 0 -21 -7 -31 -30 -43 -34 -18 -31 -31 8 -47 26 -10
23 -13 -73 -58 -112 -54 -126 -67 -19 -19 38 18 79 33 91 34 20 3 21 0 17 -53
-11 -126 -9 -122 -64 -122 -47 0 -49 1 -109 71 -34 38 -61 74 -61 78 0 4 18
16 40 26 22 10 38 20 36 22 -2 3 -23 -5 -47 -18 l-43 -22 -43 49 c-23 27 -43
55 -43 62 0 6 -4 11 -8 10 -12 -4 -148 152 -144 166 2 6 0 8 -3 4 -4 -4 -17 4
-27 18 -11 14 -22 23 -25 20 -3 -2 56 -78 131 -167 75 -90 136 -166 136 -170
0 -3 -27 -18 -60 -33 -33 -15 -60 -29 -60 -31 0 -6 41 10 91 36 l42 21 38 -44
c55 -61 63 -77 44 -84 -19 -8 -19 -50 -1 -85 l14 -27 -47 -6 c-70 -9 -162 -43
-217 -78 -45 -30 -55 -32 -124 -30 -50 1 -100 10 -150 27 -53 18 -93 25 -140
24 -37 -1 -76 4 -88 10 -30 16 -35 15 -78 -20 -22 -17 -51 -36 -66 -41 -16 -6
-28 -16 -28 -23 0 -10 14 -12 58 -8 47 4 64 2 92 -16 20 -12 52 -21 75 -21 78
0 67 -17 -16 -23 -52 -4 -98 -14 -126 -28 -24 -12 -46 -19 -48 -17 -9 9 29 51
59 64 27 11 28 13 9 14 -29 0 -103 -66 -103 -91 0 -23 -6 -24 76 7 50 19 95
28 164 31 52 3 92 2 88 -2 -4 -4 -34 -9 -67 -10 -77 -4 -100 -17 -46 -26 22
-4 59 -14 82 -23 29 -11 49 -13 65 -6 22 8 22 9 2 9 -11 1 -28 7 -39 14 -16
13 -15 14 12 15 17 0 58 14 92 31 61 31 78 30 41 -4 -11 -10 -18 -20 -16 -22
8 -9 72 30 111 67 52 50 150 108 135 81 -5 -11 -22 -29 -37 -40 l-28 -22 36
14 c19 8 59 31 87 51 28 21 66 40 85 43 l35 5 -31 -63 c-32 -68 -54 -99 -70
-99 -6 0 -3 8 5 18 33 38 26 40 -23 7 -66 -45 -89 -45 -41 1 l37 35 -44 -21
c-24 -12 -65 -28 -91 -36 -26 -8 -54 -22 -64 -33 -16 -18 -16 -18 24 -11 22 4
40 4 40 -1 0 -16 -59 -39 -99 -39 -41 0 -71 -8 -71 -19 0 -3 44 -6 98 -5 68 0
108 5 136 17 21 9 44 17 50 17 22 -1 -70 -50 -133 -71 -56 -19 -77 -21 -170
-15 -96 6 -111 10 -161 40 -69 40 -113 56 -158 56 -28 0 -42 -8 -74 -42 -51
-56 -50 -77 3 -38 76 54 143 50 215 -16 34 -31 36 -34 14 -28 -14 4 -41 17
-60 30 -50 34 -103 32 -141 -5 -33 -33 -40 -62 -8 -32 46 43 127 33 178 -23
14 -14 34 -26 45 -26 21 -1 21 -1 1 -16 -14 -11 -35 -14 -69 -11 -61 5 -102
-5 -141 -38 l-30 -25 45 20 c79 35 194 21 292 -35 49 -28 127 -33 167 -11 22
12 21 13 -29 19 -68 8 -119 42 -150 100 -13 25 -22 48 -19 51 2 3 22 1 44 -4
22 -5 67 -10 100 -10 55 -1 58 -2 41 -15 -12 -9 -43 -15 -75 -15 -54 -1 -55
-1 -31 -15 19 -11 47 -13 121 -9 85 6 100 4 145 -16 27 -12 63 -26 79 -30 l30
-7 -29 -8 c-17 -5 -46 -4 -68 2 -21 6 -38 6 -38 2 0 -20 55 -42 115 -47 59 -4
71 -2 130 27 76 38 168 64 162 47 -2 -6 -27 -19 -55 -30 -29 -10 -52 -23 -52
-28 0 -5 9 -4 19 2 31 16 99 12 141 -10 49 -25 81 -25 111 0 l24 19 -34 1
c-33 0 -56 18 -123 98 -30 36 -58 40 -115 17 -46 -19 -45 -20 -37 13 l7 27
-23 -29 c-27 -32 -76 -56 -118 -56 -43 0 -117 28 -141 54 l-22 23 28 1 c43 1
78 18 122 58 23 20 41 31 41 25 0 -20 -32 -61 -59 -76 l-26 -14 33 -1 c18 0
47 6 65 13 31 14 107 88 107 106 0 19 53 72 91 91 54 28 102 26 136 -6 21 -19
23 -24 8 -18 -41 15 -100 15 -120 0 l-20 -15 20 5 c11 2 34 -5 50 -16 l30 -20
-50 0 -50 -1 38 -13 c38 -14 67 -33 67 -45 0 -3 -22 -4 -49 -3 -39 3 -53 0
-70 -17 -26 -26 -28 -51 -3 -28 27 25 134 23 188 -4 44 -21 126 -109 102 -109
-8 0 -30 9 -51 19 -20 10 -37 15 -37 11 0 -15 61 -60 88 -66 15 -3 33 -8 40
-10 8 -2 58 4 112 13 75 13 104 14 122 6 l23 -12 -25 0 c-28 -1 -90 -35 -90
-50 0 -5 17 0 37 10 29 15 59 19 130 19 100 0 134 10 158 46 15 23 15 23 -17
16 -53 -11 -101 -7 -162 13 -50 17 -64 18 -125 7 -56 -9 -78 -9 -116 2 -59 18
-109 56 -142 109 -15 23 -36 52 -47 65 l-19 22 29 0 c16 0 48 -10 69 -21 22
-12 60 -33 85 -46 l45 -24 -42 4 c-24 3 -43 3 -43 1 0 -3 19 -14 43 -24 52
-24 237 -28 276 -6 22 12 18 13 -45 20 -81 8 -141 23 -149 36 -9 14 53 49 101
56 35 5 55 0 121 -30 90 -41 77 -48 -22 -11 -75 29 -111 27 -141 -7 -19 -21
-19 -21 5 -8 39 20 114 15 160 -11 23 -12 41 -26 41 -31 0 -4 12 -14 28 -22
l27 -15 -46 -1 c-32 0 -54 -6 -70 -20 l-24 -21 50 8 c64 10 100 10 150 0 35
-8 38 -7 21 5 -16 13 -15 14 18 10 27 -3 50 4 92 27 30 18 61 30 67 27 8 -3 6
-5 -3 -6 -8 -2 12 -8 45 -15 l60 -13 -68 -1 c-38 -1 -80 -7 -97 -16 -28 -14
-61 -54 -72 -86 -6 -14 -2 -15 34 -2 33 11 58 12 140 2 54 -6 102 -9 104 -6 3
3 -24 20 -61 38 -60 29 -70 31 -103 21 -33 -11 -34 -10 -19 6 13 12 42 18 115
22 100 6 134 17 152 49 9 19 9 19 -22 4 -26 -14 -39 -14 -75 -5 -24 7 -53 12
-65 12 -30 0 -13 15 37 35 l40 15 -55 -6 c-34 -3 -75 -17 -106 -35 -43 -24
-62 -29 -115 -28 -86 1 -119 13 -60 23 24 4 52 13 63 20 16 12 10 14 -54 18
-68 5 -168 40 -168 59 0 9 59 59 70 59 4 0 23 -7 42 -15 19 -7 39 -10 44 -6
13 12 104 20 104 10 0 -12 -60 -49 -79 -49 -11 0 -11 3 0 17 12 16 12 16 -1 6
-8 -6 -31 -15 -50 -21 l-35 -9 38 -8 c57 -11 106 2 144 40 27 27 33 29 33 15
0 -10 -7 -26 -16 -34 -9 -9 -11 -16 -4 -16 19 0 56 48 68 88 13 43 25 56 60
66 35 11 28 -23 -9 -38 -24 -10 -27 -15 -15 -19 32 -12 66 11 87 59 11 26 22
44 25 41 3 -3 1 -15 -5 -26 -11 -19 -9 -19 25 4 44 30 74 35 53 9 -7 -9 -21
-33 -30 -53 -10 -20 -18 -29 -18 -21 -1 11 -7 8 -19 -8 -10 -13 -43 -32 -73
-42 l-54 -19 47 0 c84 -2 125 25 184 116 43 68 38 83 -30 83 -58 0 -102 -18
-195 -78 -78 -51 -115 -62 -206 -62 -78 0 -89 5 -99 38 -8 24 -31 30 -39 10
-3 -8 -6 -6 -6 5 -1 9 -9 17 -18 17 -16 0 -16 -2 -3 -11 12 -9 12 -10 -3 -5
-10 3 -21 6 -23 6 -3 0 -2 4 1 10 3 5 2 10 -4 10 -5 0 -12 -6 -14 -12 -4 -8
-6 -7 -6 3 -1 9 -12 20 -26 23 -21 5 -25 12 -25 45 0 72 10 98 46 117 25 14
31 21 22 31 -6 7 -19 13 -30 13 -15 0 -19 5 -15 20 3 11 1 20 -4 20 -15 0 -10
104 5 126 10 13 11 23 4 31 -6 7 -8 21 -5 32 2 10 1 25 -4 32 -6 10 -9 5 -9
-16 -1 -16 -3 -48 -6 -70 -2 -22 -6 -67 -7 -100 -3 -65 -10 -85 -33 -85 -23 0
-16 -27 9 -34 19 -6 13 -11 -43 -41 -36 -19 -61 -34 -57 -35 4 0 25 9 47 20
64 33 73 28 68 -30 -3 -28 -7 -52 -10 -55 -2 -2 -22 1 -44 7 -21 6 -48 10 -60
9 -11 -1 -33 3 -50 9 -16 6 -24 7 -19 2 6 -5 27 -15 48 -22 21 -7 36 -14 33
-17 -3 -3 -25 3 -50 12 -32 12 -46 24 -51 42 -8 33 5 173 17 173 5 0 7 4 3 9
-3 5 0 13 6 17 8 4 9 3 5 -4 -4 -7 -5 -12 -3 -12 13 0 98 42 94 47 -3 2 -19
-3 -36 -11 -37 -20 -51 -21 -26 -3 17 13 16 15 -13 25 -24 8 -29 15 -25 31 3
13 1 21 -7 21 -10 0 -11 16 -7 63 8 86 12 93 73 128 30 17 54 33 54 36 0 3
-20 -7 -45 -22 -52 -30 -69 -25 -63 16 3 18 0 29 -7 29 -6 0 -11 -10 -11 -22
1 -16 -4 -22 -14 -20 -12 3 -13 1 -2 -9 21 -22 13 -46 -18 -59 -17 -7 -33 -17
-36 -22 -4 -5 8 -2 26 7 l31 16 -2 -83 c-3 -92 -9 -114 -39 -123 -27 -9 -25
-22 7 -39 l27 -14 -59 -30 c-33 -17 -56 -31 -52 -32 4 0 25 9 47 20 60 31 63
29 57 -46 -3 -36 -8 -68 -11 -71 -2 -3 -14 1 -27 7 -19 11 -21 10 -16 -4 4 -9
2 -16 -3 -16 -6 0 -10 8 -11 18 0 10 -3 12 -6 5 -6 -17 -26 -17 -21 -1 4 12
-100 58 -165 72 l-29 7 7 67 c10 107 16 142 25 137 5 -3 10 -1 12 4 1 5 23 21
48 35 26 15 37 25 25 24 -11 -1 -35 4 -53 11 -28 11 -33 17 -28 36 4 14 1 25
-6 27 -19 7 -10 107 13 147 15 25 16 32 5 28 -11 -4 -14 1 -11 24 2 16 7 33 9
38 3 5 -1 11 -9 15 -11 4 -15 -2 -15 -25z m50 -324 c-14 -8 -29 -14 -35 -14
-5 0 1 6 15 14 14 8 30 14 35 14 6 0 -1 -6 -15 -14z m-210 -251 c0 -8 -4 -12
-10 -9 -5 3 -10 13 -10 21 0 8 5 12 10 9 6 -3 10 -13 10 -21z m-5 -44 c10 -11
16 -20 13 -20 -3 0 -13 9 -23 20 -10 11 -16 20 -13 20 3 0 13 -9 23 -20z m78
-17 l-42 -4 -4 -57 -3 -57 -2 63 -2 62 48 -2 47 -1 -42 -4z m84 -9 c-3 -3 -12
-4 -19 -1 -8 3 -5 6 6 6 11 1 17 -2 13 -5z m248 -24 c3 -5 1 -10 -4 -10 -6 0
-11 5 -11 10 0 6 2 10 4 10 3 0 8 -4 11 -10z m-115 -22 c10 -6 7 -7 -10 -2
-14 3 -32 11 -40 16 -10 6 -7 7 10 2 14 -3 32 -11 40 -16z m-290 -48 c7 -25
22 -48 41 -62 l29 -22 -66 -43 c-67 -43 -92 -50 -59 -17 18 18 31 48 41 92 5
22 1 19 -20 -15 -20 -32 -42 -49 -89 -72 -78 -37 -128 -50 -66 -17 53 29 93
72 131 145 16 28 32 51 38 51 5 0 14 -18 20 -40z m624 11 c4 -5 -3 -7 -14 -4
-23 6 -26 13 -6 13 8 0 17 -4 20 -9z m-1331 -15 c32 -6 55 -15 51 -19 -4 -4 2
-7 12 -7 11 0 29 -7 40 -15 25 -19 38 -19 30 1 -5 12 -2 15 11 9 10 -4 49 -9
87 -11 38 -2 71 -6 73 -8 3 -3 -19 -12 -49 -21 -70 -22 -180 -31 -204 -17 -18
11 -18 11 1 13 26 1 -37 19 -90 25 l-40 5 35 -17 c21 -10 30 -18 22 -21 -7 -3
-39 7 -71 21 -32 14 -71 26 -87 26 l-29 1 29 16 c24 12 36 13 66 4 21 -6 53
-11 71 -11 l34 1 -40 18 c-47 23 -33 25 48 7z m1187 -18 c10 -6 7 -7 -10 -2
-14 3 -32 11 -40 16 -10 6 -7 7 10 2 14 -3 32 -11 40 -16z m210 12 c8 -5 11
-10 5 -10 -5 0 -17 5 -25 10 -8 5 -10 10 -5 10 6 0 17 -5 25 -10z m-100 -52
c10 -6 7 -7 -10 -2 -14 3 -32 11 -40 16 -10 6 -7 7 10 2 14 -3 32 -11 40 -16z
m80 -28 c8 -5 11 -10 5 -10 -5 0 -17 5 -25 10 -8 5 -10 10 -5 10 6 0 17 -5 25
-10z m-166 -55 c-18 -13 -17 -14 19 -15 20 0 37 -4 37 -10 0 -5 -6 -10 -14
-10 -8 0 -23 -11 -33 -25 l-18 -26 -53 37 c-28 20 -52 40 -52 45 0 9 35 15 94
18 37 1 38 0 20 -14z"/>
<path d="M1521 1480 c-1 -3 -3 -36 -6 -75 l-4 -70 10 55 c5 30 8 64 6 75 -2
11 -5 18 -6 15z"/>
<path d="M1344 1454 c-18 -14 -18 -15 4 -4 12 6 22 13 22 15 0 8 -5 6 -26 -11z"/>
<path d="M1288 1424 c-38 -20 -36 -28 2 -9 17 9 30 18 30 20 0 7 -1 6 -32 -11z"/>
<path d="M360 1426 c0 -2 8 -10 18 -17 15 -13 16 -12 3 4 -13 16 -21 21 -21
13z"/>
<path d="M2089 1403 c-13 -16 -12 -17 4 -4 9 7 17 15 17 17 0 8 -8 3 -21 -13z"/>
<path d="M400 1390 c0 -6 7 -10 15 -10 8 0 15 2 15 4 0 2 -7 6 -15 10 -8 3
-15 1 -15 -4z"/>
<path d="M1138 1339 c-21 -11 -38 -22 -38 -24 0 -3 18 4 40 15 22 11 40 23 40
25 0 7 0 7 -42 -16z"/>
<path d="M2084 1295 c-3 -8 -4 -20 -2 -27 3 -7 7 -1 10 15 6 29 1 36 -8 12z"/>
<path d="M1733 1265 c-3 -9 -3 -18 -1 -21 3 -3 8 4 11 16 6 23 -1 27 -10 5z"/>
<path d="M430 1241 c0 -5 7 -11 15 -15 8 -3 15 -1 15 3 0 5 -7 11 -15 15 -8 3
-15 1 -15 -3z"/>
<path d="M2072 1235 c-11 -12 -10 -15 3 -15 8 0 15 7 15 15 0 18 -2 18 -18 0z"/>
<path d="M852 1215 c0 -16 2 -22 5 -12 2 9 2 23 0 30 -3 6 -5 -1 -5 -18z"/>
<path d="M461 1180 c7 -14 12 -28 11 -32 -1 -4 5 -5 13 -1 13 4 13 8 3 17 -7
6 -19 18 -27 26 -11 13 -11 11 0 -10z"/>
<path d="M1360 1169 c-23 -13 -27 -18 -11 -13 17 4 21 3 16 -6 -5 -9 -4 -11 4
-6 6 4 9 12 5 17 -3 6 0 10 7 8 27 -3 40 1 34 11 -8 14 -14 12 -55 -11z"/>
<path d="M2071 1178 c-1 -9 -8 -24 -17 -32 -8 -9 -11 -16 -5 -16 14 0 34 38
27 53 -2 7 -5 5 -5 -5z"/>
<path d="M1794 1134 c-18 -14 -18 -15 4 -4 12 6 22 13 22 15 0 8 -5 6 -26 -11z"/>
<path d="M511 1127 c2 -1 13 -9 24 -17 19 -14 19 -14 6 3 -7 9 -18 17 -24 17
-6 0 -8 -1 -6 -3z"/>
<path d="M1020 1106 c0 -2 7 -7 16 -10 8 -3 12 -2 9 4 -6 10 -25 14 -25 6z"/>
<path d="M508 1034 c2 -18 8 -32 12 -29 8 5 1 53 -9 59 -4 3 -5 -11 -3 -30z"/>
<path d="M1640 1050 c-9 -6 -10 -10 -3 -10 6 0 15 5 18 10 8 12 4 12 -15 0z"/>
<path d="M412 1020 c2 -45 12 -58 42 -53 27 6 32 -3 42 -82 3 -27 10 -57 16
-65 8 -12 9 -12 4 3 -6 20 -2 21 27 5 16 -8 13 -3 -9 20 -17 17 -31 41 -31 54
1 49 -14 77 -41 80 -21 2 -30 11 -39 38 l-12 35 1 -35z"/>
<path d="M1650 1025 c-14 -8 -20 -14 -14 -15 5 0 19 7 30 15 24 18 16 19 -16
0z"/>
<path d="M2036 985 c4 -8 1 -15 -7 -15 -7 0 -9 -3 -6 -6 9 -9 38 16 31 27 -9
15 -24 10 -18 -6z"/>
<path d="M1840 925 c-14 -8 -20 -14 -14 -15 5 0 19 7 30 15 24 18 16 19 -16 0z"/>
<path d="M2094 893 c3 -53 -12 -81 -54 -96 -13 -5 -13 -5 0 -6 21 -1 66 41 73
68 3 12 -1 37 -8 54 l-14 32 3 -52z"/>
<path d="M1320 875 c-14 -8 -20 -14 -15 -14 6 0 21 6 35 14 14 8 21 14 15 14
-5 0 -21 -6 -35 -14z"/>
<path d="M2005 770 c-3 -6 1 -7 9 -4 18 7 21 14 7 14 -6 0 -13 -4 -16 -10z"/>
<path d="M526 757 c3 -10 9 -15 12 -12 3 3 0 11 -7 18 -10 9 -11 8 -5 -6z"/>
</g>
</svg>
