<?xml version="1.0" encoding="UTF-8"?>
<svg width="50px" height="50px" viewBox="0 0 50 50" version="1.1" xmlns="http://www.w3.org/2000/svg" xmlns:xlink="http://www.w3.org/1999/xlink">
    <title>マップアイコン/icon_windmill</title>
    <g id="マップアイコン/icon_windmill" stroke="none" stroke-width="1" fill="none" fill-rule="evenodd">
        <path d="M25.5001143,27.222474 L28.0312564,28.5980796 C29.4281461,34.0570029 30.127174,39.456201 30.1293739,44.7958089 C30.2563766,46.3280611 30.240011,47.9294564 30.0794296,49.6 L30.0794296,49.6 L20.9189619,49.6 C20.7583703,47.9293494 20.7420135,46.3278642 20.8690368,44.795465 C20.8712506,39.5186688 21.5698723,34.1196007 22.9663111,28.5984271 L22.9663111,28.5984271 L25.5001143,27.222474 Z M25.4991958,0.4 C26.3494026,0.4 27.1236916,0.729195773 27.6995942,1.2657557 C28.2323482,1.76211472 28.5950156,2.43577538 28.6928939,3.19733724 L28.7129518,3.40714813 L29.48393,19.5128308 L43.0370306,28.1560532 C43.7827972,28.5880955 44.2887233,29.2937713 44.4953553,30.0842144 C44.7009048,30.8705164 44.6100397,31.7395992 44.1675578,32.5014338 C43.5946938,33.4873653 42.5256854,34.1 41.378413,34.1 C40.9747363,34.1 40.574401,34.0237294 40.1996963,33.8772989 L39.9781275,33.7810703 L25.4991769,26.3705571 L11.1776186,33.6995008 C10.7324281,33.9517555 10.1807536,34.1 9.6208995,34.1 C8.47374982,34.1 7.40473735,33.4864465 6.83184135,32.5015829 C6.40615267,31.7694327 6.30525026,30.9383204 6.48454635,30.1738068 C6.64846347,29.4748686 7.04683088,28.8317038 7.6520196,28.3666447 L7.83975323,28.2325924 L21.5145956,19.5127903 L22.2805383,3.54430177 C22.2842519,2.68636194 22.6462641,1.89731555 23.2330775,1.3238157 C23.8145795,0.755506692 24.6159235,0.4 25.4991958,0.4 Z M25.4842378,20.8 C25.0964369,20.8 24.746626,20.9560568 24.4937099,21.2089572 C24.2401343,21.4625171 24.0841136,21.8130932 24.0841136,22.2 C24.0841136,22.585163 24.2436772,22.9335685 24.4988845,23.1862307 C24.7569797,23.441752 25.113051,23.6 25.5042603,23.6 C25.8942893,23.6 26.2471177,23.4431819 26.5023952,23.1891766 C26.7568474,22.9359925 26.9142779,22.5862454 26.9142779,22.2 C26.9142779,21.8135796 26.7565512,21.4636949 26.4998195,21.2107622 C26.2412002,20.9559699 25.8827801,20.8 25.4842378,20.8 Z" id="windmill" stroke="#101010" stroke-width="1.2" fill="#FFFFFF"></path>
    </g>
</svg>