<?xml version="1.0" encoding="UTF-8"?>
<svg width="256px" height="256px" viewBox="0 0 256 256" version="1.1" xmlns="http://www.w3.org/2000/svg" xmlns:xlink="http://www.w3.org/1999/xlink">
    <title>ロゴ/logo_relife_cim_ship</title>
    <g id="ロゴ/logo_relife_cim_ship" stroke="none" stroke-width="1" fill="none" fill-rule="evenodd">
        <g id="01" transform="translate(0.000000, 2.000000)">
            <path d="M227.780458,222.977438 C231.721657,203.457234 241.240165,185.616331 256.33598,169.45473 C249.739249,162.659989 242.294967,156.464535 234.123585,151.070199 C202.004991,129.867637 162.919877,123.84712 131.012783,134.942152 C133.34879,168.642251 154.243351,202.218349 186.361945,223.420411 C189.932051,225.777372 193.588219,227.946547 197.311028,229.925331 L227.780458,222.977438 Z" id="leave2" fill="#0C7B15" fill-rule="nonzero" transform="translate(193.674382, 179.702781) scale(-1, 1) translate(-193.674382, -179.702781) "></path>
            <path d="M252.226737,241.087462 C251.454235,236.112448 246.792221,232.705938 241.819707,233.47794 C222.22365,236.519449 202.498592,236.496449 183.271036,233.56344 C174.33501,232.200436 165.507984,230.20443 156.850458,227.594423 C151.004941,198.065837 131.421884,169.759754 103.110801,151.070199 C70.9922075,129.867637 31.9070933,123.84712 0,134.942152 C2.33600683,168.642251 23.2305679,202.218349 55.3491618,223.420411 C83.1827431,241.795964 116.24734,248.757485 145.339925,243.069968 C152.575946,245.500975 159.931467,247.532981 167.376489,249.159486 C182.053032,252.365995 197.072076,254 212.19462,254 C222.978652,254 233.818183,253.170998 244.617215,251.494493 C249.59223,250.72149 252.999239,246.061977 252.226737,241.087462 Z" id="leave1" fill="#88C13C" fill-rule="nonzero"></path>
            <path d="M27,114 L91,114 L91,139.048578 C79.9194194,133.157046 70.1803175,129.404081 61.7826944,127.789682 C53.3850713,126.175283 41.7908399,125.144168 27,124.696336 L27,114 Z M96,114 L160,114 L160.091321,141.563378 C153.913417,144.604191 148.527037,147.910123 143.93218,151.481174 C139.337324,155.052225 134.15512,159.604989 128.38557,165.139465 C125.137276,161.660979 120.411617,157.597944 114.208593,152.95036 C108.00557,148.302776 101.936039,144.373745 96,141.163267 L96,114 Z M165,114 L229,114 L229,125 C217.587063,124.800265 206.484914,125.920809 195.693553,128.361631 C184.824411,130.602718 174.593227,134.365406 165,139.649695 L165,114 Z M61,57 L125,57 L125,109 L61,109 L61,57 Z M96,0 L160,0 L160,52 L96,52 L96,0 Z M130,57 L194,57 L194,109 L130,109 L130,57 Z" id="boxes" fill="#3C5B74"></path>
        </g>
    </g>
</svg>