<?xml version="1.0" encoding="UTF-8"?>
<svg width="256px" height="256px" viewBox="0 0 256 256" version="1.1" xmlns="http://www.w3.org/2000/svg" xmlns:xlink="http://www.w3.org/1999/xlink">
    <title>logo_relife_cim</title>
    <g id="logo_relife_cim" stroke="none" stroke-width="1" fill="none" fill-rule="evenodd">
        <g id="earth-and-hand" fill="#0C7B15" fill-rule="nonzero">
            <path d="M151.2725,0 C100.0725,0 58.1815,41.891 58.1815,93.091 C58.1815,108.2185 61.6725,123.3455 68.654,136.7275 C69.8175,138.473 71.563,139.6365 73.8905,139.6365 L181.527,139.6365 C180.945,140.8 180.945,141.964 180.3635,143.1275 C179.2,146.0365 180.9455,149.5275 183.8545,150.691 C184.4365,150.691 185.018,151.273 186.182,151.273 C188.5095,151.273 190.8365,150.1095 191.4185,147.782 C192.582,145.4545 193.164,142.5455 193.746,139.6365 L203.055,139.6365 C206.546,139.6365 208.873,137.309 208.873,133.8185 C208.873,130.328 206.5455,128 203.0545,128 L196.6545,128 C198.4,118.691 199.5635,108.8 200.1455,98.909 L232.7275,98.909 C231.564,114.618 226.3275,129.1635 216.4365,141.9635 C214.691,144.291 215.273,148.3635 217.6,150.109 C218.7635,150.691 219.9275,151.273 221.091,151.273 C222.8365,151.273 224.582,150.6905 225.7455,148.945 C237.9635,132.654 244.3635,113.454 244.3635,93.0905 C244.3635,41.891 202.4725,0 151.2725,0 Z M87.2725,98.909 L101.818,98.909 C102.4,108.8 103.5635,118.691 105.309,128 L77.382,128 C72.1455,116.9455 69.8185,105.309 69.8185,93.091 C69.8185,80.873 72.7275,68.6545 77.964,58.182 L105.3095,58.182 C103.564,67.491 102.4005,76.8 101.8185,87.273 L87.273,87.273 C83.782,87.273 81.455,89.6005 81.455,93.091 C81.455,96.5815 83.782,98.909 87.2725,98.909 Z M84.9455,46.5455 C93.673,33.1635 107.0545,22.691 122.7635,16.873 C116.9455,24.4365 112.291,34.9095 108.8,46.5455 L84.9455,46.5455 Z M145.4545,128 L117.527,128 C115.1995,118.691 114.036,108.8 114.036,98.909 L145.454,98.909 L145.454,128 L145.4545,128 Z M145.4545,87.2725 L113.4545,87.2725 C114.0365,76.8 115.2,66.909 116.9455,58.1815 L145.4545,58.1815 L145.4545,87.2725 Z M151.2725,23.2725 C147.7815,23.2725 145.4545,25.6 145.4545,29.0905 L145.4545,46.545 L120.4365,46.545 C127.4185,25.5995 138.473,11.636 151.273,11.636 C164.073,11.636 175.1275,25.5995 182.1095,46.545 L157.0915,46.545 L157.0915,29.091 C157.091,25.6 154.7635,23.2725 151.2725,23.2725 Z M185.018,128 L157.0905,128 L157.0905,58.182 L185.018,58.182 C187.3455,66.9095 188.509,76.8 188.509,87.273 L174.5455,87.273 C171.0545,87.273 168.7275,89.6005 168.7275,93.091 C168.7275,96.5815 171.055,98.909 174.5455,98.909 L189.091,98.909 C188.509,109.382 187.3455,118.691 185.018,128 Z M200.1455,87.273 C199.5635,76.8 198.4,67.4905 196.6545,58.1815 L203.6365,58.1815 C207.1275,58.1815 209.4545,55.854 209.4545,52.3635 C209.4545,48.873 207.127,46.5455 203.6365,46.5455 L194.3275,46.5455 C190.8365,34.909 186.182,24.4365 180.364,16.873 C208.873,27.9275 230.4005,55.273 232.146,87.273 L200.1455,87.273 L200.1455,87.273 Z" id="earth"></path>
            <path d="M254.2545,170.4725 C242.0365,158.2545 223.418,155.927 208.8725,164.0725 L184.436,175.709 C178.036,178.618 170.4725,180.3635 162.9085,180.9455 C166.3995,176.291 168.7265,169.891 168.7265,163.491 C168.7265,157.091 163.49,151.8545 157.09,151.8545 L96.582,151.8545 C81.4545,151.8545 66.9095,158.2545 57.0185,169.891 L36.655,193.1635 C33.746,188.509 28.5095,186.1815 23.273,186.1815 L5.818,186.1815 C2.3275,186.182 0,188.509 0,192 C0,195.491 2.3275,197.818 5.818,197.818 L23.2725,197.818 C26.7635,197.818 29.0905,200.1455 29.0905,203.636 L29.0905,238.545 C29.0905,242.036 26.763,244.363 23.2725,244.363 L5.818,244.363 C2.3275,244.3635 0,246.691 0,250.182 C0,253.673 2.3275,256 5.818,256 L23.2725,256 C30.836,256 37.236,251.3455 39.5635,244.3635 L71.5635,244.3635 C74.4725,244.3635 77.3815,244.3635 79.709,243.7815 L161.7455,234.4725 C175.1275,232.727 187.9275,228.0725 198.982,219.927 L253.6725,179.2 C254.836,178.0365 256,176.8725 256,175.1275 C256,173.3825 255.418,171.6365 254.2545,170.4725 Z M192,210.618 C182.691,217.6 172.218,221.6725 160.582,222.836 L78.5455,232.145 C76.218,232.145 73.891,232.727 71.5635,232.727 L40.7275,232.727 L40.7275,205.9635 L66.3275,176.8725 C73.891,168.145 84.9455,162.909 97.164,162.909 L157.0915,162.909 C157.0915,172.8 149.528,180.3635 139.637,180.3635 L133.819,180.3635 L104.728,180.3635 C101.237,180.3635 98.91,182.691 98.91,186.1815 C98.91,189.6725 101.2375,191.9995 104.728,191.9995 L133.819,191.9995 L139.637,191.9995 L161.1645,191.9995 C171.0555,191.9995 180.3645,189.672 189.092,185.5995 L214.11,173.963 C222.2555,169.3085 232.728,169.3085 240.8735,174.545 L192,210.618 Z" id="hand"></path>
        </g>
    </g>
</svg>