<?xml version="1.0" encoding="UTF-8"?>
<svg width="126px" height="42px" viewBox="0 0 126 42" version="1.1" xmlns="http://www.w3.org/2000/svg" xmlns:xlink="http://www.w3.org/1999/xlink">
    <title>ロゴ/logo_relife_windfarm</title>
    <g id="ロゴ/logo_relife_windfarm" stroke="none" stroke-width="1" fill="none" fill-rule="evenodd">
        <rect id="sea" fill="#0190E6" x="0" y="32" width="126" height="10"></rect>
        <rect id="sky" fill="#71BAFF" transform="translate(63.000000, 16.000000) scale(1, -1) translate(-63.000000, -16.000000) " x="0" y="0" width="126" height="32"></rect>
        <path d="M22,23.3000258 L23.6331983,24.1666667 C24.7224319,28.3871263 25.2670487,32.5620135 25.2670487,36.6913285 C25.3582074,37.75141 25.3582074,38.8543005 25.2670487,40 L18.7316472,40 C18.6404885,38.8543005 18.6404885,37.75141 18.7316472,36.6913285 C18.7316472,32.6096287 19.276264,28.4347414 20.3654975,24.1666667 L22,23.3000258 Z M21.9993479,2 C23.1194578,2 24.0400733,2.84495629 24.1180094,3.91157056 L24.1233534,4.05833333 L24.7563237,16.9242835 L35.9668413,23.9047673 C36.9516829,24.455693 37.3000696,25.7168242 36.7152213,26.7 C36.3371318,27.3353496 35.6312318,27.7291667 34.8743889,27.7291667 C34.5651913,27.7291667 34.2589897,27.6629453 33.9786871,27.5368307 L33.8137966,27.4540254 L21.9993479,21.5514329 L10.1558601,27.4691413 C9.86206696,27.6338079 9.49600789,27.7291667 9.12505365,27.7291667 C8.36821075,27.7291667 7.6623108,27.334626 7.28422123,26.7 C6.72532342,25.7614373 7.01727835,24.5697601 7.92678791,23.9698666 L8.06089371,23.8882845 L19.2424552,16.9242835 L19.8760891,4.02609147 C19.8753424,2.92351628 20.828324,2 21.9993479,2 Z M22.0034543,17.2 L21.9872199,17.2 C21.0876424,17.2 20.3654975,17.9093734 20.3654975,18.7833333 C20.3654975,19.6572933 21.1038768,20.3666667 22.0034543,20.3666667 C22.9047507,20.3666667 23.6331983,19.6572933 23.6331983,18.7833333 C23.6331983,17.9093734 22.9047507,17.2 22.0034543,17.2 Z" id="windmill" fill="#FFFFFF"></path>
        <path d="M51.676406,24.3432758 L53.3065587,25.5 C54.1779455,28.8319418 54.613639,32.1279054 54.613639,35.3878909 C54.6865659,36.2247974 54.6865659,37.0955004 54.613639,38 L49.3853177,38 C49.3123908,37.0955004 49.3123908,36.2247974 49.3853177,35.3878909 C49.3853177,32.1654963 49.881966,28.5728272 50.8752626,24.6098836 L51.676406,24.3432758 Z M53.8096539,8.09876733 C54.6885295,8.22228525 55.3213031,8.97201153 55.2794593,9.80493812 L55.2661654,9.94443648 L54.3539866,20.0733891 L62.4681505,26.7788275 C63.1878242,27.3191869 63.3252562,28.3439162 62.753906,29.0474377 C62.3845699,29.5020521 61.7820757,29.7313407 61.1824938,29.647075 C60.947341,29.6140264 60.7210812,29.5335729 60.5191518,29.4123475 L60.372508,29.3138874 L51.6614695,23.3838934 L41.6286879,26.6916661 C41.3778482,26.7876905 41.0773735,26.8214846 40.7834982,26.7801831 C40.1839163,26.6959174 39.6680418,26.3088753 39.4382423,25.7706348 C39.1021927,24.9830716 39.4532357,24.0945301 40.2224388,23.7196363 L40.3624665,23.6589357 L49.9858203,19.4594834 L51.9049638,9.44634615 C52.025516,8.58428011 52.8819517,7.9683873 53.8096539,8.09876733 Z M50.6712504,21.0379088 C50.5752253,21.7211625 51.0822387,22.3579539 51.794897,22.4581115 C52.508917,22.5584605 53.1639451,22.0849833 53.2599702,21.4017297 C53.3559952,20.718476 52.8568498,20.0827903 52.1428298,19.9824413 L52.1299686,19.9806338 C51.4173104,19.8804762 50.7672754,20.3546552 50.6712504,21.0379088 Z" id="windmill" fill="#FFFFFF"></path>
        <path d="M75.8940071,25.0603285 L77.6451327,26.6684006 C78.2611315,28.8883536 78.5691308,31.3023243 78.5691308,33.9103127 C78.6268647,34.5798379 78.6268647,35.2764003 78.5691308,36 L74.4300432,36 C74.3723094,35.2764003 74.3723094,34.5798379 74.4300432,33.9103127 C74.4300432,31.332397 74.7646489,28.4176207 75.4338604,25.1659838 L75.8940071,25.0603285 Z M79.4106962,12.418441 C80.0790571,12.6100905 80.489445,13.2610692 80.375351,13.9093799 L80.3454602,14.0388696 L78.4910204,21.9604485 L84.1007634,28.1554122 C84.6044252,28.6618103 84.5969765,29.488277 84.0697635,29.9830783 C83.728977,30.3028039 83.2306674,30.418666 82.7699022,30.2865437 C82.5891925,30.234726 82.4207883,30.1463386 82.2760509,30.0283176 L82.172113,29.934354 L76.0070507,24.2883633 L67.7665517,25.8135574 C67.5590244,25.862241 67.3195673,25.8562315 67.0937307,25.7914739 C66.6329654,25.6593516 66.2718985,25.2965917 66.1521979,24.845299 C65.9784911,24.1898363 66.3469521,23.5294199 66.9836771,23.3114229 L67.1145178,23.273855 L75.1341824,20.9978907 L77.7653425,13.2778488 C77.9568316,12.6083311 78.6977779,12.214015 79.4106962,12.418441 Z M75.4942536,22.3225932 C75.3421087,22.8531854 75.6681409,23.412754 76.2158028,23.5697936 C76.7645112,23.7271332 77.3314819,23.4236289 77.4836268,22.8930368 C77.6357716,22.3624447 77.3157859,21.8046098 76.7670775,21.6472702 L76.757194,21.6444361 C76.2095321,21.4873966 75.6463984,21.7920011 75.4942536,22.3225932 Z" id="windmill" fill="#FFFFFF"></path>
        <path d="M95.854209,25.3977513 L97.6602426,27.5915356 C97.9757638,29.1894462 98.1335243,30.7741558 98.1335243,32.3456642 C98.1791037,32.875705 98.1791037,33.4271503 98.1335243,34 L94.8658236,34 C94.8202442,33.4271503 94.8202442,32.875705 94.8658236,32.3456642 C94.8658236,30.3048143 95.1952854,27.9888433 95.854209,25.3977513 Z M99.8837905,15.7503922 C100.380476,15.9715307 100.629343,16.5181616 100.477582,17.0101463 L100.435379,17.1225382 L98.1079754,23.1280795 L101.809025,28.5964382 C102.146833,29.0483717 102.049492,29.6952728 101.582403,30.0254211 C101.280492,30.23874 100.877966,30.2750672 100.532261,30.1211494 C100.405151,30.0645564 100.290058,29.9839561 100.193671,29.884851 L100.103766,29.7797815 L95.9076484,24.6809536 L89.2943917,24.9754111 C89.1267071,24.9908782 88.9401083,24.9599906 88.7706666,24.8845503 C88.4249614,24.7306324 88.1827626,24.4068593 88.1391244,24.040088 C88.0761405,23.5097687 88.4339348,23.0343465 88.9522674,22.9302347 L89.0657011,22.9137236 L95.5893906,22.0067333 L98.501901,16.244052 C98.7257888,15.7402738 99.3488987,15.512243 99.8837905,15.7503922 Z M95.7242939,23.0842878 C95.5465581,23.4834888 95.7395656,23.9576742 96.150468,24.1406198 C96.5621556,24.3239149 97.0391547,24.1480356 97.2168905,23.7488346 C97.3946263,23.3496335 97.2061553,22.8774679 96.7944677,22.6941728 L96.7870523,22.6908712 C96.3761498,22.5079257 95.9020297,22.6850867 95.7242939,23.0842878 Z" id="windmill" fill="#FFFFFF"></path>
        <path d="M112.431071,25.3320698 L114.110766,27.999464 C114.241468,28.903021 114.306819,29.8011814 114.306819,30.6939455 C114.343283,31.1123987 114.343283,31.5477502 114.306819,32 L111.692659,32 C111.656195,31.5477502 111.656195,31.1123987 111.692659,30.6939455 C111.692659,29.0827482 111.938796,27.2954563 112.431071,25.3320698 Z M116.47006,17.9793774 C116.834191,18.2069117 116.973847,18.655384 116.811751,19.0211588 L116.760004,19.118637 L114.283438,23.5597581 L116.626093,28.2727834 C116.844928,28.6659636 116.699306,29.1619813 116.295254,29.3671362 C116.034098,29.4996804 115.712265,29.481885 115.455529,29.3214587 C115.361132,29.2624728 115.278778,29.1860452 115.213166,29.0972593 L115.153309,29.0045423 L112.380317,24.5243335 L107.12492,23.9948839 C106.990815,23.9877324 106.846694,23.9420615 106.720859,23.8634312 C106.464123,23.703005 106.307198,23.4213022 106.311693,23.1287147 C106.318209,22.7103205 106.644147,22.3813472 107.058114,22.3528486 L107.163306,22.352106 L112.413027,22.390996 L115.325995,18.207561 C115.556376,17.8383092 116.072826,17.7311581 116.47006,17.9793774 Z M112.405111,23.2513725 C112.222298,23.5439357 112.324384,23.9379151 112.629538,24.1285965 C112.935275,24.3196422 113.330765,24.2365827 113.513578,23.9440195 C113.696392,23.6514563 113.597674,23.2595821 113.291937,23.0685364 L113.28643,23.0650952 C112.981276,22.8744138 112.587925,22.9588093 112.405111,23.2513725 Z" id="windmill" fill="#FFFFFF"></path>
    </g>
</svg>