<?xml version="1.0" encoding="utf-8"?>
<!-- Generator: Adobe Illustrator 26.2.1, SVG Export Plug-In . SVG Version: 6.00 Build 0)  -->
<svg version="1.1" id="レイヤー_1" xmlns="http://www.w3.org/2000/svg" xmlns:xlink="http://www.w3.org/1999/xlink" x="0px"
	 y="0px" viewBox="0 0 1024 276" enable-background="new 0 0 1024 276" xml:space="preserve">
<linearGradient id="SVGID_1_" gradientUnits="userSpaceOnUse" x1="512" y1="236" x2="512" y2="108">
	<stop  offset="0" style="stop-color:#FFFFFF;stop-opacity:0"/>
	<stop  offset="1" style="stop-color:#FFFFFF;stop-opacity:0.5"/>
</linearGradient>
<path fill="url(#SVGID_1_)" d="M845,168.24c-74.98,0-142.86-11.51-192-30.12S535.98,108,461,108s-142.86,11.51-192,30.12
	s-117.02,30.12-192,30.12c-26.75,0-52.59-1.47-77-4.2V236h1024v-93.28C976.21,158.6,913.58,168.24,845,168.24z"/>
<linearGradient id="SVGID_00000008146296125205503080000003064308629527622299_" gradientUnits="userSpaceOnUse" x1="512" y1="199" x2="512" y2="119">
	<stop  offset="0" style="stop-color:#FFFFFF;stop-opacity:0"/>
	<stop  offset="1" style="stop-color:#FFFFFF;stop-opacity:0.5"/>
</linearGradient>
<path fill="url(#SVGID_00000008146296125205503080000003064308629527622299_)" d="M1024,150.59c-23.91-3.19-45.55-7.52-64-12.76
	C919.05,126.19,862.48,119,800,119s-119.05,7.19-160,18.82c-40.95,11.63-97.52,18.82-160,18.82s-119.05-7.19-160-18.82
	C279.05,126.19,222.48,119,160,119S40.95,126.19,0,137.82V199h1024V150.59z"/>
<linearGradient id="SVGID_00000181793181605412764200000004011253627353654173_" gradientUnits="userSpaceOnUse" x1="512" y1="276" x2="512" y2="96">
	<stop  offset="0" style="stop-color:#FFFFFF;stop-opacity:0"/>
	<stop  offset="1" style="stop-color:#FFFFFF;stop-opacity:0.5"/>
</linearGradient>
<path fill="url(#SVGID_00000181793181605412764200000004011253627353654173_)" d="M1024,98.25c-37.16,5.3-70.4,19.65-96,40.1
	c-32.76,26.17-78.01,42.35-128,42.35s-95.24-16.19-128-42.35C639.24,112.19,593.99,96,544,96s-95.24,16.19-128,42.35
	c-32.76,26.17-78.01,42.35-128,42.35s-95.24-16.19-128-42.35C127.24,112.19,81.99,96,32,96c-10.92,0-21.61,0.77-32,2.25V276h1024
	V98.25z"/>
</svg>
